<svg xmlns="http://www.w3.org/2000/svg" style="background: rgba(0, 0, 0, 0);" preserveAspectRatio="xMidYMid" viewBox="197.55 67.8 109.58 32.41"><defs><linearGradient id="editing-gradient-gradient" x1="0" x2="1" y1="0.5" y2="0.5" gradientUnits="objectBoundingBox"><stop offset="0" stop-color="#f0f"/><stop offset="1" stop-color="#0ff"/></linearGradient></defs><g><g transform="translate(196.9542144536972, 91.20450019836426)"><path d="M10.41-21.48L10.41-21.48L10.41-21.48Q10.35-21.57 10.24-21.77L10.24-21.77L10.24-21.77Q10.14-21.96 10.20-22.02L10.20-22.02L10.20-22.02Q10.26-22.08 10.39-21.99L10.39-21.99L10.39-21.99Q10.53-21.90 10.56-21.87L10.56-21.87L10.56-21.87Q11.10-21.48 11.56-20.79L11.56-20.79L11.56-20.79Q12.03-20.10 12.40-19.27L12.40-19.27L12.40-19.27Q12.78-18.45 13.08-17.55L13.08-17.55L13.08-17.55Q13.38-16.65 13.56-15.84L13.56-15.84L13.56-15.84Q14.01-13.86 14.32-11.94L14.32-11.94L14.32-11.94Q14.64-10.02 14.64-7.98L14.64-7.98L14.64-7.98Q14.64-7.92 14.65-7.62L14.65-7.62L14.65-7.62Q14.67-7.32 14.55-7.26L14.55-7.26L14.55-7.26Q14.46-7.32 14.35-7.56L14.35-7.56L14.35-7.56Q14.25-7.80 14.22-7.89L14.22-7.89L14.22-7.89Q13.86-9 13.57-10.42L13.57-10.42L13.57-10.42Q13.29-11.85 13.05-13.02L13.05-13.02L13.05-13.02Q12.87-13.92 12.72-14.74L12.72-14.74L12.72-14.74Q12.57-15.57 12.38-16.35L12.38-16.35L12.38-16.35Q12.18-17.13 11.92-17.93L11.92-17.93L11.92-17.93Q11.67-18.72 11.31-19.59L11.31-19.59L11.31-19.59Q11.25-19.71 11.12-20.01L11.12-20.01L11.12-20.01Q10.98-20.31 10.83-20.61L10.83-20.61L10.83-20.61Q10.68-20.91 10.56-21.16L10.56-21.16L10.56-21.16Q10.44-21.42 10.41-21.48ZM17.61 0.75L17.61 0.75L17.61 0.75Q17.28 0.57 17.16 0.53L17.16 0.53L17.16 0.53Q17.04 0.48 16.71 0.27L16.71 0.27L16.71 0.27Q15.99-0.15 15.39-0.82L15.39-0.82L15.39-0.82Q14.79-1.50 14.31-2.31L14.31-2.31L14.31-2.31Q13.83-3.12 13.46-4.04L13.46-4.04L13.46-4.04Q13.08-4.95 12.81-5.85L12.81-5.85L12.81-5.85Q12.21-5.46 11.38-5.38L11.38-5.38L11.38-5.38Q10.56-5.31 9.87-5.31L9.87-5.31L9.87-5.31Q9-5.31 8.14-5.37L8.14-5.37L8.14-5.37Q7.29-5.43 6.42-5.43L6.42-5.43L6.42-5.43Q5.58-3.87 4.84-2.42L4.84-2.42L4.84-2.42Q4.11-0.96 3.69 0.30L3.69 0.30L3.69 0.30Q3.69 0.33 3.66 0.43L3.66 0.43L3.66 0.43Q3.63 0.54 3.57 0.54L3.57 0.54L3.57 0.54Q3.48 0.54 3.48 0.33L3.48 0.33L3.48 0.33Q3.48 0.12 3.48 0.06L3.48 0.06L3.48 0.06Q3.48-1.14 4.06-2.63L4.06-2.63L4.06-2.63Q4.65-4.11 5.37-5.55L5.37-5.55L4.92-5.58L4.92-5.58Q4.74-5.16 4.42-4.41L4.42-4.41L4.42-4.41Q4.11-3.66 3.82-2.85L3.82-2.85L3.82-2.85Q3.54-2.04 3.31-1.29L3.31-1.29L3.31-1.29Q3.09-0.54 3.09-0.09L3.09-0.09L3.09-0.09Q3.09 0 3 0L3 0L3 0Q2.88 0 2.82-0.20L2.82-0.20L2.82-0.20Q2.76-0.39 2.71-0.63L2.71-0.63L2.71-0.63Q2.67-0.87 2.65-1.13L2.65-1.13L2.65-1.13Q2.64-1.38 2.64-1.47L2.64-1.47L2.64-1.47Q2.64-2.52 2.91-3.67L2.91-3.67L2.91-3.67Q3.18-4.83 3.63-5.79L3.63-5.79L3.24-5.85L3.24-5.85Q2.97-5.19 2.73-4.54L2.73-4.54L2.73-4.54Q2.49-3.90 2.31-3.21L2.31-3.21L2.31-3.21Q2.31-3.15 2.28-3.06L2.28-3.06L2.28-3.06Q2.25-2.97 2.19-3L2.19-3L2.19-3Q2.13-3.12 2.11-3.28L2.11-3.28L2.11-3.28Q2.10-3.45 2.10-3.57L2.10-3.57L2.10-3.57Q2.10-4.83 2.55-6L2.55-6L2.55-6Q2.70-6.30 2.85-6.30L2.85-6.30L2.85-6.30Q3.48-6.48 4.13-6.51L4.13-6.51L4.13-6.51Q4.77-6.54 5.46-6.54L5.46-6.54L5.46-6.54Q6.96-6.54 8.43-6.31L8.43-6.31L8.43-6.31Q9.90-6.09 11.37-6.09L11.37-6.09L11.37-6.09Q12.09-6.09 12.69-6.21L12.69-6.21L12.63-6.69L12.63-6.69Q12.30-6.60 11.92-6.57L11.92-6.57L11.92-6.57Q11.55-6.54 11.22-6.54L11.22-6.54L11.22-6.54Q10.05-6.54 8.80-6.78L8.80-6.78L8.80-6.78Q7.56-7.02 6.42-7.35L6.42-7.35L6.42-7.35Q6.36-7.41 6.18-7.46L6.18-7.46L6.18-7.46Q6-7.50 6-7.59L6-7.59L6-7.59Q6-7.65 6.18-7.69L6.18-7.69L6.18-7.69Q6.36-7.74 6.42-7.74L6.42-7.74L6.42-7.74Q6.84-7.77 7.25-7.79L7.25-7.79L7.25-7.79Q7.65-7.80 8.07-7.80L8.07-7.80L8.07-7.80Q8.76-7.80 9.45-7.79L9.45-7.79L9.45-7.79Q10.14-7.77 10.86-7.77L10.86-7.77L10.86-7.77Q11.22-7.77 11.61-7.77L11.61-7.77L11.61-7.77Q12-7.77 12.36-7.80L12.36-7.80L12.30-8.13L11.91-8.13L11.91-8.13Q10.47-8.13 9.04-8.40L9.04-8.40L9.04-8.40Q7.62-8.67 6.18-8.67L6.18-8.67L6.18-8.67Q4.95-8.67 4.00-8.37L4.00-8.37L4.00-8.37Q3.06-8.07 2.38-7.68L2.38-7.68L2.38-7.68Q1.71-7.29 1.29-6.90L1.29-6.90L1.29-6.90Q0.87-6.51 0.69-6.33L0.69-6.33L0.69-6.33Q0.63-6.30 0.63-6.30L0.63-6.30L0.63-6.30Q0.60-6.30 0.60-6.36L0.60-6.36L0.60-6.36Q0.60-6.39 0.63-6.42L0.63-6.42L0.63-6.42Q1.17-7.47 1.95-8.17L1.95-8.17L1.95-8.17Q2.73-8.88 3.87-9.24L3.87-9.24L3.87-9.24Q5.01-11.67 6.22-14.07L6.22-14.07L6.22-14.07Q7.44-16.47 8.79-18.81L8.79-18.81L8.79-18.81Q8.82-18.87 8.91-19.00L8.91-19.00L8.91-19.00Q9-19.14 9.09-19.14L9.09-19.14L9.09-19.14Q9.12-19.11 9.12-19.08L9.12-19.08L9.12-19.02L9.12-19.02Q9.12-18.78 9.09-18.66L9.09-18.66L9.09-18.66Q8.52-16.23 7.41-13.98L7.41-13.98L7.41-13.98Q6.30-11.73 5.13-9.54L5.13-9.54L5.70-9.57L5.70-9.57Q5.79-9.75 6.17-10.35L6.17-10.35L6.17-10.35Q6.54-10.95 6.97-11.59L6.97-11.59L6.97-11.59Q7.41-12.24 7.77-12.76L7.77-12.76L7.77-12.76Q8.13-13.29 8.22-13.29L8.22-13.29L8.25-13.20L8.25-13.20Q8.25-13.05 8.07-12.54L8.07-12.54L8.07-12.54Q7.89-12.03 7.65-11.43L7.65-11.43L7.65-11.43Q7.41-10.83 7.18-10.30L7.18-10.30L7.18-10.30Q6.96-9.78 6.87-9.57L6.87-9.57L6.87-9.57Q7.05-9.57 7.23-9.55L7.23-9.55L7.23-9.55Q7.41-9.54 7.59-9.54L7.59-9.54L7.59-9.54Q8.13-10.62 8.74-11.80L8.74-11.80L8.74-11.80Q9.36-12.99 9.81-14.22L9.81-14.22L9.81-14.22Q10.26-15.45 10.42-16.71L10.42-16.71L10.42-16.71Q10.59-17.97 10.23-19.20L10.23-19.20L10.23-19.20Q10.23-19.05 10.15-18.60L10.15-18.60L10.15-18.60Q10.08-18.15 9.96-17.65L9.96-17.65L9.96-17.65Q9.84-17.16 9.72-16.79L9.72-16.79L9.72-16.79Q9.60-16.41 9.48-16.41L9.48-16.41L9.48-16.41Q9.39-16.41 9.40-16.53L9.40-16.53L9.40-16.53Q9.42-16.65 9.42-16.68L9.42-16.68L9.42-16.68Q9.42-17.46 9.53-18.22L9.53-18.22L9.53-18.22Q9.63-18.99 9.63-19.77L9.63-19.77L9.63-19.77Q9.63-20.82 9.30-21.81L9.30-21.81L9.30-21.81Q9.30-21.84 9.21-22.06L9.21-22.06L9.21-22.06Q9.12-22.29 9.27-22.29L9.27-22.29L9.27-22.29Q9.33-22.29 9.48-22.14L9.48-22.14L9.48-22.14Q9.78-21.84 10.06-21.33L10.06-21.33L10.06-21.33Q10.35-20.82 10.59-20.23L10.59-20.23L10.59-20.23Q10.83-19.65 11.04-19.08L11.04-19.08L11.04-19.08Q11.25-18.51 11.37-18.12L11.37-18.12L11.37-18.12Q11.76-16.83 12.01-15.52L12.01-15.52L12.01-15.52Q12.27-14.22 12.46-12.91L12.46-12.91L12.46-12.91Q12.66-11.61 12.87-10.29L12.87-10.29L12.87-10.29Q13.08-8.97 13.35-7.68L13.35-7.68L13.35-7.68Q13.62-6.42 13.99-5.22L13.99-5.22L13.99-5.22Q14.37-4.02 14.91-2.94L14.91-2.94L14.91-2.94Q15.45-1.86 16.16-0.94L16.16-0.94L16.16-0.94Q16.86-0.03 17.79 0.66L17.79 0.66L17.79 0.66Q17.94 0.81 17.89 0.85L17.89 0.85L17.89 0.85Q17.85 0.90 17.61 0.75ZM17.46-2.16L17.55-1.80L17.55-1.80Q17.58-1.62 17.52-1.64L17.52-1.64L17.52-1.64Q17.46-1.65 17.38-1.74L17.38-1.74L17.38-1.74Q17.31-1.83 17.23-1.95L17.23-1.95L17.23-1.95Q17.16-2.07 17.16-2.10L17.16-2.10L17.16-2.10Q16.44-3.42 16.02-4.79L16.02-4.79L16.02-4.79Q15.60-6.15 15.36-7.54L15.36-7.54L15.36-7.54Q15.12-8.94 14.96-10.37L14.96-10.37L14.96-10.37Q14.79-11.79 14.56-13.28L14.56-13.28L14.56-13.28Q14.34-14.76 13.98-16.29L13.98-16.29L13.98-16.29Q13.62-17.82 12.96-19.41L12.96-19.41L12.96-19.41Q12.93-19.47 12.87-19.62L12.87-19.62L12.87-19.62Q12.81-19.77 12.87-19.80L12.87-19.80L12.87-19.80Q12.93-19.80 13.02-19.71L13.02-19.71L13.14-19.59L13.14-19.59Q13.80-18.81 14.31-17.52L14.31-17.52L14.31-17.52Q14.82-16.23 15.21-14.76L15.21-14.76L15.21-14.76Q15.60-13.29 15.85-11.85L15.85-11.85L15.85-11.85Q16.11-10.41 16.26-9.33L16.26-9.33L16.26-9.33Q16.50-7.62 16.77-5.73L16.77-5.73L16.77-5.73Q17.04-3.84 17.46-2.16L17.46-2.16ZM8.64-9.42L8.64-9.42L8.64-9.42Q9.51-9.33 10.37-9.21L10.37-9.21L10.37-9.21Q11.22-9.09 12.09-9.03L12.09-9.03L12.09-9.03Q11.76-10.62 11.52-12.18L11.52-12.18L11.52-12.18Q11.28-13.74 11.07-15.36L11.07-15.36L11.07-15.36Q10.68-13.80 10.00-12.33L10.00-12.33L10.00-12.33Q9.33-10.86 8.64-9.42ZM18.51 0.42L18.51 0.42L18.51 0.42Q17.91 0.15 17.46-0.10L17.46-0.10L17.46-0.10Q17.01-0.36 16.68-0.81L16.68-0.81L16.68-0.81Q16.17-1.50 15.88-2.19L15.88-2.19L15.88-2.19Q15.60-2.88 15.42-3.48L15.42-3.48L15.42-3.48Q15.36-3.72 15.31-4.02L15.31-4.02L15.31-4.02Q15.27-4.32 15.33-4.32L15.33-4.32L15.33-4.32Q15.45-4.32 15.63-3.93L15.63-3.93L15.63-3.93Q15.81-3.54 15.96-3.27L15.96-3.27L15.96-3.27Q16.41-2.34 17.10-1.40L17.10-1.40L17.10-1.40Q17.79-0.45 18.60 0.15L18.60 0.15L18.60 0.15Q18.84 0.36 18.75 0.42L18.75 0.42L18.75 0.42Q18.66 0.48 18.51 0.42ZM0.78-5.34L0.78-5.34L0.78-5.34Q0.78-5.34 0.72-5.34L0.72-5.34L0.69-5.34L0.69-5.34Q0.69-5.43 0.72-5.52L0.72-5.52L0.72-5.52Q0.75-5.61 0.78-5.70L0.78-5.70L0.78-5.70Q1.02-6.21 1.24-6.46L1.24-6.46L1.24-6.46Q1.47-6.72 1.98-7.02L1.98-7.02L1.98-7.02Q2.28-7.20 2.82-7.38L2.82-7.38L2.82-7.38Q3.36-7.56 3.69-7.56L3.69-7.56L3.69-7.56Q3.75-7.56 3.85-7.54L3.85-7.54L3.85-7.54Q3.96-7.53 3.96-7.44L3.96-7.44L3.96-7.44Q3.96-7.35 3.65-7.20L3.65-7.20L3.65-7.20Q3.33-7.05 3.24-6.99L3.24-6.99L3.24-6.99Q2.10-6.30 1.56-5.94L1.56-5.94L1.56-5.94Q1.02-5.58 0.78-5.34ZM22.29-11.07L22.29-11.07L22.29-11.07Q22.32-11.34 22.47-11.71L22.47-11.71L22.47-11.71Q22.62-12.09 22.87-12.43L22.87-12.43L22.87-12.43Q23.13-12.78 23.49-13.06L23.49-13.06L23.49-13.06Q23.85-13.35 24.30-13.44L24.30-13.44L24.30-13.44Q25.26-13.62 25.89-13.32L25.89-13.32L25.89-13.32Q26.52-13.02 26.85-12.63L26.85-12.63L26.85-12.63Q26.97-12.45 26.94-12.42L26.94-12.42L26.94-12.42Q26.88-12.36 26.73-12.45L26.73-12.45L26.73-12.45Q26.55-12.57 26.14-12.66L26.14-12.66L26.14-12.66Q25.74-12.75 25.27-12.71L25.27-12.71L25.27-12.71Q24.81-12.66 24.37-12.42L24.37-12.42L24.37-12.42Q23.94-12.18 23.67-11.64L23.67-11.64L23.67-11.64Q23.43-11.13 23.34-10.59L23.34-10.59L23.34-10.59Q23.25-10.05 23.23-9.58L23.23-9.58L23.23-9.58Q23.22-9.12 23.25-8.79L23.25-8.79L23.25-8.79Q23.28-8.46 23.28-8.34L23.28-8.34L23.28-8.34Q23.34-8.01 23.38-7.51L23.38-7.51L23.38-7.51Q23.43-7.02 23.43-6.51L23.43-6.51L23.43-6.51Q23.43-6 23.40-5.50L23.40-5.50L23.40-5.50Q23.37-5.01 23.28-4.65L23.28-4.65L23.28-4.65Q23.25-4.56 23.20-4.35L23.20-4.35L23.20-4.35Q23.16-4.14 23.10-4.14L23.10-4.14L23.10-4.14Q22.95-4.14 22.95-4.35L22.95-4.35L22.95-4.35Q22.95-4.56 22.95-4.65L22.95-4.65L22.95-4.65Q22.89-5.40 22.74-6.17L22.74-6.17L22.74-6.17Q22.59-6.93 22.45-7.74L22.45-7.74L22.45-7.74Q22.32-8.55 22.26-9.38L22.26-9.38L22.26-9.38Q22.20-10.20 22.29-11.07ZM21.24-5.13L21.24-5.13L21.24-5.13Q21.27-5.73 21.13-6.83L21.13-6.83L21.13-6.83Q21.00-7.92 21.03-9.36L21.03-9.36L21.03-9.36Q21.06-10.11 21.18-10.90L21.18-10.90L21.18-10.90Q21.30-11.70 21.75-12.48L21.75-12.48L21.75-12.48Q22.23-13.32 22.96-13.72L22.96-13.72L22.96-13.72Q23.70-14.13 24.24-14.10L24.24-14.10L24.24-14.10Q24.33-14.10 24.42-14.10L24.42-14.10L24.42-14.10Q24.51-14.10 24.51-14.07L24.51-14.07L24.51-14.07Q24.51-14.01 24.48-14.03L24.48-14.03L24.48-14.03Q24.45-14.04 24.27-13.98L24.27-13.98L24.27-13.98Q23.73-13.83 23.31-13.48L23.31-13.48L23.31-13.48Q22.89-13.14 22.59-12.69L22.59-12.69L22.59-12.69Q22.29-12.24 22.11-11.76L22.11-11.76L22.11-11.76Q21.93-11.28 21.90-10.89L21.90-10.89L21.90-10.89Q21.72-9.24 21.93-8.01L21.93-8.01L21.93-8.01Q22.08-7.02 22.17-5.96L22.17-5.96L22.17-5.96Q22.26-4.89 22.09-4.00L22.09-4.00L22.09-4.00Q21.93-3.12 21.46-2.53L21.46-2.53L21.46-2.53Q21.00-1.95 20.04-1.89L20.04-1.89L20.04-1.89Q19.95-1.89 19.81-1.91L19.81-1.91L19.81-1.91Q19.68-1.92 19.68-1.98L19.68-1.98L19.68-1.98Q19.68-2.04 19.95-2.19L19.95-2.19L19.95-2.19Q20.73-2.55 20.97-3.24L20.97-3.24L20.97-3.24Q21.21-3.93 21.24-5.13ZM18.06-1.59L18.06-1.59L18.06-1.59Q18.48-0.93 19.39-0.61L19.39-0.61L19.39-0.61Q20.31-0.30 21.57-0.66L21.57-0.66L21.57-0.66Q22.20-0.84 22.68-1.29L22.68-1.29L22.68-1.29Q23.16-1.74 23.47-2.29L23.47-2.29L23.47-2.29Q23.79-2.85 23.95-3.45L23.95-3.45L23.95-3.45Q24.12-4.05 24.15-4.56L24.15-4.56L24.15-4.56Q24.18-5.40 24.10-6.21L24.10-6.21L24.10-6.21Q24.03-7.02 23.92-7.79L23.92-7.79L23.92-7.79Q23.82-8.55 23.74-9.27L23.74-9.27L23.74-9.27Q23.67-9.99 23.73-10.68L23.73-10.68L23.73-10.68Q23.79-11.43 24.15-11.82L24.15-11.82L24.15-11.82Q24.51-12.21 25.03-12.31L25.03-12.31L25.03-12.31Q25.56-12.42 26.13-12.24L26.13-12.24L26.13-12.24Q26.70-12.06 27.18-11.67L27.18-11.67L27.18-11.67Q27.30-11.61 27.27-11.52L27.27-11.52L27.27-11.52Q27.27-11.46 27.21-11.49L27.21-11.49L27.21-11.49Q27.15-11.52 27.09-11.55L27.09-11.55L27.09-11.55Q25.98-11.91 25.36-11.76L25.36-11.76L25.36-11.76Q24.75-11.61 24.69-10.68L24.69-10.68L24.69-10.68Q24.63-9.60 24.85-8.14L24.85-8.14L24.85-8.14Q25.08-6.69 25.02-4.92L25.02-4.92L25.02-4.92Q25.05-4.32 24.88-3.54L24.88-3.54L24.88-3.54Q24.72-2.76 24.34-2.02L24.34-2.02L24.34-2.02Q23.97-1.29 23.35-0.72L23.35-0.72L23.35-0.72Q22.74-0.15 21.90 0L21.90 0L21.90 0Q20.31 0.24 19.36-0.18L19.36-0.18L19.36-0.18Q18.42-0.60 18.00-1.47L18.00-1.47L18.00-1.47Q17.94-1.65 17.94-1.68L17.94-1.68L17.97-1.68L17.97-1.68Q17.97-1.68 18.06-1.59ZM19.38-1.59L19.38-1.59L19.38-1.59Q19.95-1.44 20.76-1.47L20.76-1.47L20.76-1.47Q21.03-1.50 21.42-1.62L21.42-1.62L21.42-1.62Q21.81-1.74 21.84-1.68L21.84-1.68L21.84-1.68Q21.93-1.56 21.66-1.38L21.66-1.38L21.66-1.38Q21.39-1.20 20.97-1.06L20.97-1.06L20.97-1.06Q20.55-0.93 20.10-0.89L20.10-0.89L20.10-0.89Q19.65-0.84 19.35-0.96L19.35-0.96L19.35-0.96Q18.78-1.20 18.52-1.48L18.52-1.48L18.52-1.48Q18.27-1.77 18.06-2.19L18.06-2.19L18.00-2.31L18.00-2.31Q17.94-2.43 17.97-2.46L17.97-2.46L17.97-2.46Q18.00-2.49 18.06-2.46L18.06-2.46L18.06-2.46Q18.09-2.43 18.09-2.40L18.09-2.40L18.09-2.40Q18.45-2.07 18.70-1.91L18.70-1.91L18.70-1.91Q18.96-1.74 19.38-1.59ZM31.08-9.99L31.08-9.99L31.08-9.99Q30.84-8.97 30.40-7.84L30.40-7.84L30.40-7.84Q29.97-6.72 29.43-5.76L29.43-5.76L29.43-5.76Q29.43-5.70 29.35-5.56L29.35-5.56L29.35-5.56Q29.28-5.43 29.16-5.43L29.16-5.43L29.16-5.43Q29.10-5.43 29.08-5.61L29.08-5.61L29.08-5.61Q29.07-5.79 29.10-5.85L29.10-5.85L29.10-5.85Q29.10-6.33 29.22-7.13L29.22-7.13L29.22-7.13Q29.34-7.92 29.52-8.43L29.52-8.43L29.52-8.43Q29.58-8.61 29.71-9.30L29.71-9.30L29.71-9.30Q29.85-9.99 29.95-10.84L29.95-10.84L29.95-10.84Q30.06-11.70 30.07-12.49L30.07-12.49L30.07-12.49Q30.09-13.29 29.88-13.68L29.88-13.68L29.88-13.80L29.88-13.80Q30.00-13.89 30.15-13.74L30.15-13.74L30.15-13.74Q30.54-13.41 30.76-12.93L30.76-12.93L30.76-12.93Q30.99-12.45 31.09-11.92L31.09-11.92L31.09-11.92Q31.20-11.40 31.18-10.89L31.18-10.89L31.18-10.89Q31.17-10.38 31.08-9.99ZM32.25-10.11L32.25-10.11L32.25-10.11Q32.58-10.53 32.88-10.71L32.88-10.71L32.88-10.71Q33.18-10.89 33.48-11.01L33.48-11.01L33.48-11.01Q33.51-11.01 33.63-11.04L33.63-11.04L33.63-11.04Q33.75-11.07 33.81-10.98L33.81-10.98L33.81-10.98Q33.87-10.89 33.78-10.77L33.78-10.77L33.78-10.77Q33.69-10.65 33.63-10.59L33.63-10.59L33.63-10.59Q33.42-10.38 33.16-10.13L33.16-10.13L33.16-10.13Q32.91-9.87 32.70-9.63L32.70-9.63L32.70-9.63Q32.40-9.30 32.22-8.87L32.22-8.87L32.22-8.87Q32.04-8.43 31.95-7.98L31.95-7.98L31.95-7.98Q32.46-8.52 32.92-9L32.92-9L32.92-9Q33.39-9.48 33.93-9.90L33.93-9.90L33.93-9.90Q34.62-10.41 35.13-11.22L35.13-11.22L35.13-11.22Q35.64-12.03 35.85-13.59L35.85-13.59L35.85-13.59Q35.91-13.74 36-13.77L36-13.77L36-13.77Q36.09-13.80 36.09-13.56L36.09-13.56L36.09-13.56Q36.18-11.82 35.73-10.80L35.73-10.80L35.73-10.80Q35.28-9.78 34.38-9.09L34.38-9.09L34.38-9.09Q33.90-8.73 33.42-8.31L33.42-8.31L33.42-8.31Q32.94-7.89 32.50-7.38L32.50-7.38L32.50-7.38Q32.07-6.87 31.71-6.18L31.71-6.18L31.71-6.18Q31.35-5.49 31.08-4.59L31.08-4.59L31.08-4.59Q30.87-3.90 30.66-3.28L30.66-3.28L30.66-3.28Q30.45-2.67 30.21-2.10L30.21-2.10L30.21-2.10Q30.15-1.89 30.03-1.89L30.03-1.89L30.03-1.89Q29.94-1.92 29.94-2.19L29.94-2.19L29.94-2.19Q29.79-3.63 30.13-5.05L30.13-5.05L30.13-5.05Q30.48-6.48 30.96-8.01L30.96-8.01L30.96-8.01Q31.17-8.76 31.45-9.51L31.45-9.51L31.45-9.51Q31.74-10.26 31.71-11.22L31.71-11.22L31.71-11.22Q31.71-11.55 31.98-11.91L31.98-11.91L31.98-11.91Q32.25-12.27 32.64-12.58L32.64-12.58L32.64-12.58Q33.03-12.90 33.45-13.13L33.45-13.13L33.45-13.13Q33.87-13.35 34.17-13.44L34.17-13.44L34.17-13.44Q34.44-13.53 34.44-13.41L34.44-13.41L34.44-13.41Q34.44-13.29 34.26-13.11L34.26-13.11L34.26-13.11Q33.63-12.54 32.98-11.76L32.98-11.76L32.98-11.76Q32.34-10.98 32.25-10.11ZM29.64-0.03L29.64-0.03L29.64-0.03Q29.61 0 29.59-0.01L29.59-0.01L29.59-0.01Q29.58-0.03 29.43-0.12L29.43-0.12L29.43-0.12Q28.53-0.78 28.02-1.56L28.02-1.56L28.02-1.56Q27.51-2.34 27.28-3.17L27.28-3.17L27.28-3.17Q27.06-3.99 27.09-4.81L27.09-4.81L27.09-4.81Q27.12-5.64 27.30-6.42L27.30-6.42L27.30-6.42Q27.54-7.47 27.88-8.50L27.88-8.50L27.88-8.50Q28.23-9.54 28.53-10.51L28.53-10.51L28.53-10.51Q28.83-11.49 28.98-12.43L28.98-12.43L28.98-12.43Q29.13-13.38 28.98-14.25L28.98-14.25L28.98-14.25Q28.98-14.31 29.07-14.34L29.07-14.34L29.07-14.34Q29.10-14.34 29.13-14.29L29.13-14.29L29.13-14.29Q29.16-14.25 29.19-14.22L29.19-14.22L29.19-14.22Q29.76-13.26 29.76-12.25L29.76-12.25L29.76-12.25Q29.76-11.25 29.49-10.21L29.49-10.21L29.49-10.21Q29.22-9.18 28.81-8.12L28.81-8.12L28.81-8.12Q28.41-7.05 28.17-5.97L28.17-5.97L28.17-5.97Q27.87-4.59 28.12-3.03L28.12-3.03L28.12-3.03Q28.38-1.47 29.52-0.24L29.52-0.24L29.52-0.24Q29.58-0.15 29.64-0.12L29.64-0.12L29.64-0.12Q29.70-0.09 29.64-0.03ZM30.54 0L30.54 0L30.54 0Q30.48 0 30.42-0.03L30.42-0.03L30.30-0.09L30.30-0.09Q29.88-0.36 29.55-0.67L29.55-0.67L29.55-0.67Q29.22-0.99 28.98-1.59L28.98-1.59L28.98-1.59Q28.89-1.80 28.83-2.15L28.83-2.15L28.83-2.15Q28.77-2.49 28.75-2.79L28.75-2.79L28.75-2.79Q28.74-3.09 28.78-3.30L28.78-3.30L28.78-3.30Q28.83-3.51 28.95-3.48L28.95-3.48L28.95-3.48Q29.04-3.48 29.14-3.24L29.14-3.24L29.14-3.24Q29.25-3 29.31-2.76L29.31-2.76L29.31-2.76Q29.37-2.43 29.44-2.13L29.44-2.13L29.44-2.13Q29.52-1.83 29.64-1.59L29.64-1.59L29.64-1.59Q29.97-0.84 30.51-0.15L30.51-0.15L30.51-0.15Q30.57 0 30.54 0ZM35.43-13.47L35.43-13.47L35.43-13.47Q35.43-12.84 35.07-12.36L35.07-12.36L35.07-12.36Q34.71-11.88 34.20-11.55L34.20-11.55L34.20-11.55Q34.11-11.49 34.08-11.56L34.08-11.56L34.08-11.56Q34.05-11.64 34.05-11.67L34.05-11.67L34.05-11.67Q34.05-11.85 34.20-12.11L34.20-12.11L34.20-12.11Q34.35-12.36 34.54-12.64L34.54-12.64L34.54-12.64Q34.74-12.93 34.92-13.23L34.92-13.23L34.92-13.23Q35.10-13.53 35.16-13.77L35.16-13.77L35.16-13.77Q35.25-13.92 35.34-13.77L35.34-13.77L35.34-13.77Q35.43-13.62 35.43-13.47ZM47.52-10.56L47.52-10.56L47.52-10.56Q47.28-9.36 46.71-8.16L46.71-8.16L46.71-8.16Q46.14-6.96 45.63-5.91L45.63-5.91L45.63-5.91Q45.60-5.85 45.49-5.70L45.49-5.70L45.49-5.70Q45.39-5.55 45.33-5.55L45.33-5.55L45.33-5.55Q45.24-5.58 45.24-5.75L45.24-5.75L45.24-5.75Q45.24-5.91 45.24-5.97L45.24-5.97L45.24-5.97Q45.27-6.24 45.34-6.61L45.34-6.61L45.34-6.61Q45.42-6.99 45.48-7.39L45.48-7.39L45.48-7.39Q45.54-7.80 45.61-8.17L45.61-8.17L45.61-8.17Q45.69-8.55 45.78-8.85L45.78-8.85L45.78-8.85Q46.05-9.87 46.23-10.61L46.23-10.61L46.23-10.61Q46.41-11.34 46.50-11.94L46.50-11.94L46.50-11.94Q46.59-12.54 46.60-13.08L46.60-13.08L46.60-13.08Q46.62-13.62 46.53-14.25L46.53-14.25L46.53-14.25Q46.50-14.49 46.56-14.55L46.56-14.55L46.56-14.55Q46.62-14.58 46.71-14.49L46.71-14.49L46.71-14.49Q46.80-14.40 46.86-14.31L46.86-14.31L46.86-14.31Q47.37-13.50 47.55-12.53L47.55-12.53L47.55-12.53Q47.73-11.55 47.52-10.56ZM48.12-12.75L48.24-12.57L48.24-12.57Q48.63-12 48.63-11.07L48.63-11.07L48.63-11.07Q48.63-10.14 48.45-9.16L48.45-9.16L48.45-9.16Q48.27-8.19 48.00-7.29L48.00-7.29L48.00-7.29Q47.73-6.39 47.61-5.85L47.61-5.85L47.61-5.85Q47.37-4.80 46.95-3.75L46.95-3.75L46.95-3.75Q46.53-2.70 46.23-1.89L46.23-1.89L46.23-1.89Q46.20-1.80 46.14-1.69L46.14-1.69L46.14-1.69Q46.08-1.59 46.02-1.59L46.02-1.59L46.02-1.59Q45.96-1.59 45.96-1.71L45.96-1.71L45.96-1.71Q45.96-1.83 45.96-1.92L45.96-1.92L45.96-1.92Q45.87-3.57 46.32-5.14L46.32-5.14L46.32-5.14Q46.77-6.72 47.28-8.34L47.28-8.34L47.28-8.34Q47.58-9.33 47.85-10.37L47.85-10.37L47.85-10.37Q48.12-11.40 48.09-12.63L48.09-12.63L48.09-12.63Q48.09-12.75 48.12-12.75L48.12-12.75ZM45.42-13.08L45.42-13.08L45.42-13.08Q43.59-12.33 42.31-10.93L42.31-10.93L42.31-10.93Q41.04-9.54 40.35-7.80L40.35-7.80L40.35-7.80Q40.05-7.02 39.90-6.40L39.90-6.40L39.90-6.40Q39.75-5.79 39.66-5.07L39.66-5.07L39.66-5.07Q39.63-4.92 39.75-4.77L39.75-4.77L39.75-4.77Q39.87-4.62 39.99-4.77L39.99-4.77L39.99-4.77Q40.53-5.43 41.37-6.45L41.37-6.45L41.37-6.45Q42.21-7.47 43.05-8.61L43.05-8.61L43.05-8.61Q43.89-9.75 44.56-10.92L44.56-10.92L44.56-10.92Q45.24-12.09 45.42-13.08ZM43.41-2.91L43.41-2.91L43.41-2.91Q42.96-2.28 42.54-1.74L42.54-1.74L42.54-1.74Q42.12-1.20 41.61-0.79L41.61-0.79L41.61-0.79Q41.10-0.39 40.47-0.15L40.47-0.15L40.47-0.15Q39.84 0.09 39.03 0.12L39.03 0.12L39.03 0.12Q37.68 0.18 36.97-0.57L36.97-0.57L36.97-0.57Q36.27-1.32 36.00-2.40L36.00-2.40L36.00-2.40Q35.73-3.48 35.80-4.63L35.80-4.63L35.80-4.63Q35.88-5.79 36.12-6.54L36.12-6.54L36.12-6.54Q36.45-7.59 36.91-8.54L36.91-8.54L36.91-8.54Q37.38-9.48 37.90-10.24L37.90-10.24L37.90-10.24Q38.43-11.01 38.98-11.56L38.98-11.56L38.98-11.56Q39.54-12.12 40.08-12.42L40.08-12.42L40.08-12.42Q40.11-12.42 40.21-12.48L40.21-12.48L40.21-12.48Q40.32-12.54 40.32-12.45L40.32-12.45L40.32-12.45Q40.35-12.45 40.29-12.36L40.29-12.36L40.29-12.36Q40.23-12.27 40.17-12.21L40.17-12.21L40.17-12.21Q38.61-10.59 37.69-8.55L37.69-8.55L37.69-8.55Q36.78-6.51 36.66-4.35L36.66-4.35L36.66-4.35Q36.63-3.81 36.70-3.18L36.70-3.18L36.70-3.18Q36.78-2.55 37.00-1.99L37.00-1.99L37.00-1.99Q37.23-1.44 37.65-1.06L37.65-1.06L37.65-1.06Q38.07-0.69 38.79-0.69L38.79-0.69L38.79-0.69Q39.36-0.69 39.84-0.89L39.84-0.89L39.84-0.89Q40.32-1.08 40.74-1.40L40.74-1.40L40.74-1.40Q41.16-1.71 41.50-2.08L41.50-2.08L41.50-2.08Q41.85-2.46 42.12-2.79L42.12-2.79L42.12-2.79Q42.72-3.54 43.23-4.35L43.23-4.35L43.23-4.35Q43.23-4.95 43.30-5.52L43.30-5.52L43.30-5.52Q43.38-6.09 43.53-6.66L43.53-6.66L43.53-6.66Q43.62-7.08 43.69-7.33L43.69-7.33L43.69-7.33Q43.77-7.59 43.84-7.81L43.84-7.81L43.84-7.81Q43.92-8.04 43.99-8.29L43.99-8.29L43.99-8.29Q44.07-8.55 44.22-8.97L44.22-8.97L44.22-8.97Q43.74-8.13 43.27-7.39L43.27-7.39L43.27-7.39Q42.81-6.66 42.28-5.98L42.28-5.98L42.28-5.98Q41.76-5.31 41.20-4.67L41.20-4.67L41.20-4.67Q40.65-4.02 39.99-3.36L39.99-3.36L39.99-3.36Q39.48-2.85 39.15-3.03L39.15-3.03L39.15-3.03Q38.82-3.21 38.76-3.87L38.76-3.87L38.76-3.87Q38.70-4.89 38.86-5.85L38.86-5.85L38.86-5.85Q39.03-6.81 39.45-7.86L39.45-7.86L39.45-7.86Q39.84-8.82 40.42-9.72L40.42-9.72L40.42-9.72Q41.01-10.62 41.77-11.36L41.77-11.36L41.77-11.36Q42.54-12.09 43.47-12.62L43.47-12.62L43.47-12.62Q44.40-13.14 45.45-13.32L45.45-13.32L45.45-13.32Q45.51-13.65 45.55-13.89L45.55-13.89L45.55-13.89Q45.60-14.13 45.63-14.37L45.63-14.37L45.63-14.37Q45.69-14.70 45.69-14.70L45.69-14.70L45.69-14.70Q45.75-14.73 45.82-14.64L45.82-14.64L45.82-14.64Q45.90-14.55 45.96-14.40L45.96-14.40L45.96-14.40Q46.32-13.41 46.20-12.42L46.20-12.42L46.20-12.42Q46.08-11.43 45.76-10.41L45.76-10.41L45.76-10.41Q45.45-9.39 45.03-8.32L45.03-8.32L45.03-8.32Q44.61-7.26 44.34-6.18L44.34-6.18L44.34-6.18Q43.98-4.65 44.14-3.01L44.14-3.01L44.14-3.01Q44.31-1.38 45.42-0.06L45.42-0.06L45.42-0.06Q45.51 0.06 45.51 0.06L45.51 0.06L45.51 0.06Q45.48 0.09 45.33 0L45.33 0L45.33 0Q44.46-0.54 44.02-1.30L44.02-1.30L44.02-1.30Q43.59-2.07 43.41-2.91ZM44.46-13.53L44.46-13.53L44.46-13.53Q44.52-13.47 44.44-13.44L44.44-13.44L44.44-13.44Q44.37-13.41 44.13-13.35L44.13-13.35L44.13-13.35Q43.74-13.23 43.18-12.90L43.18-12.90L43.18-12.90Q42.63-12.57 42.01-12.06L42.01-12.06L42.01-12.06Q41.40-11.55 40.80-10.88L40.80-10.88L40.80-10.88Q40.20-10.20 39.75-9.42L39.75-9.42L39.75-9.42Q39.30-8.61 38.98-7.83L38.98-7.83L38.98-7.83Q38.67-7.05 38.47-6.40L38.47-6.40L38.47-6.40Q38.28-5.76 38.19-5.29L38.19-5.29L38.19-5.29Q38.10-4.83 38.10-4.65L38.10-4.65L38.10-4.65Q38.10-4.20 38.10-3.71L38.10-3.71L38.10-3.71Q38.10-3.21 38.22-2.82L38.22-2.82L38.22-2.82Q38.34-2.43 38.64-2.22L38.64-2.22L38.64-2.22Q38.94-2.01 39.54-2.10L39.54-2.10L39.54-2.10Q39.57-2.10 39.69-2.15L39.69-2.15L39.69-2.15Q39.81-2.19 39.93-2.23L39.93-2.23L39.93-2.23Q40.05-2.28 40.15-2.31L40.15-2.31L40.15-2.31Q40.26-2.34 40.29-2.34L40.29-2.34L40.29-2.34Q40.32-2.28 40.24-2.19L40.24-2.19L40.24-2.19Q40.17-2.10 40.05-1.99L40.05-1.99L40.05-1.99Q39.93-1.89 39.82-1.80L39.82-1.80L39.82-1.80Q39.72-1.71 39.69-1.68L39.69-1.68L39.69-1.68Q38.94-1.23 38.43-1.41L38.43-1.41L38.43-1.41Q37.92-1.59 37.63-2.08L37.63-2.08L37.63-2.08Q37.35-2.58 37.24-3.25L37.24-3.25L37.24-3.25Q37.14-3.93 37.17-4.47L37.17-4.47L37.17-4.47Q37.23-5.52 37.50-6.55L37.50-6.55L37.50-6.55Q37.77-7.59 38.19-8.64L38.19-8.64L38.19-8.64Q38.52-9.45 39.18-10.30L39.18-10.30L39.18-10.30Q39.84-11.16 40.66-11.88L40.66-11.88L40.66-11.88Q41.49-12.60 42.39-13.06L42.39-13.06L42.39-13.06Q43.29-13.53 44.13-13.56L44.13-13.56L44.13-13.56Q44.43-13.56 44.46-13.53ZM46.23-0.06L46.23-0.06L46.23-0.06Q46.29 0.03 46.26 0.06L46.26 0.06L46.26 0.06Q46.17 0.06 46.02 0L46.02 0L46.02 0Q45.93-0.06 45.54-0.36L45.54-0.36L45.54-0.36Q45.15-0.66 44.97-1.32L44.97-1.32L44.97-1.32Q44.91-1.56 44.86-1.93L44.86-1.93L44.86-1.93Q44.82-2.31 44.82-2.64L44.82-2.64L44.82-2.64Q44.82-2.97 44.86-3.21L44.86-3.21L44.86-3.21Q44.91-3.45 45.00-3.45L45.00-3.45L45.00-3.45Q45.09-3.45 45.19-3.09L45.19-3.09L45.19-3.09Q45.30-2.73 45.33-2.64L45.33-2.64L45.33-2.64Q45.42-2.22 45.49-1.91L45.49-1.91L45.49-1.91Q45.57-1.59 45.66-1.32L45.66-1.32L45.66-1.32Q45.78-0.99 45.97-0.57L45.97-0.57L45.97-0.57Q46.17-0.15 46.23-0.06ZM59.64-11.79L59.64-11.79L59.64-11.79Q59.64-11.76 59.61-11.68L59.61-11.68L59.61-11.68Q59.58-11.61 59.55-11.55L59.55-11.55L59.55-11.55Q59.37-11.13 59.04-10.83L59.04-10.83L59.04-10.83Q58.71-10.53 58.35-10.32L58.35-10.32L58.35-10.32Q57.99-10.11 57.63-10.02L57.63-10.02L57.63-10.02Q57.27-9.93 57.00-9.96L57.00-9.96L57.00-9.96Q56.19-10.02 55.32-10.24L55.32-10.24L55.32-10.24Q54.45-10.47 53.67-10.77L53.67-10.77L53.67-10.77Q53.64-10.77 53.50-10.86L53.50-10.86L53.50-10.86Q53.37-10.95 53.37-11.01L53.37-11.01L53.37-11.01Q53.37-11.07 53.46-11.10L53.46-11.10L53.46-11.10Q53.55-11.13 53.61-11.16L53.61-11.16L53.61-11.16Q53.79-11.22 54.09-11.25L54.09-11.25L54.09-11.25Q54.39-11.28 54.70-11.28L54.70-11.28L54.70-11.28Q55.02-11.28 55.32-11.26L55.32-11.26L55.32-11.26Q55.62-11.25 55.83-11.22L55.83-11.22L55.83-11.22Q56.31-11.13 56.85-11.12L56.85-11.12L56.85-11.12Q57.39-11.10 57.90-11.16L57.90-11.16L57.90-11.16Q58.41-11.22 58.83-11.37L58.83-11.37L58.83-11.37Q59.25-11.52 59.49-11.79L59.49-11.79L59.49-11.79Q59.64-11.94 59.64-11.79ZM59.88-12.69L59.88-12.69L59.79-12.57L59.79-12.57Q59.25-11.82 58.51-11.64L58.51-11.64L58.51-11.64Q57.78-11.46 56.97-11.55L56.97-11.55L56.97-11.55Q56.16-11.64 55.30-11.85L55.30-11.85L55.30-11.85Q54.45-12.06 53.64-12.09L53.64-12.09L53.64-12.09Q52.59-12.15 51.51-11.63L51.51-11.63L51.51-11.63Q50.43-11.10 49.65-9.75L49.65-9.75L49.65-9.75Q49.59-9.60 49.53-9.63L49.53-9.63L49.53-9.63Q49.50-9.63 49.51-9.73L49.51-9.73L49.51-9.73Q49.53-9.84 49.56-9.90L49.56-9.90L49.56-9.90Q49.86-10.80 50.31-11.40L50.31-11.40L50.31-11.40Q50.76-12 51.28-12.36L51.28-12.36L51.28-12.36Q51.81-12.72 52.36-12.87L52.36-12.87L52.36-12.87Q52.92-13.02 53.46-13.02L53.46-13.02L53.46-13.02Q54.96-16.20 56.98-18.81L56.98-18.81L56.98-18.81Q59.01-21.42 61.38-23.22L61.38-23.22L61.38-23.22Q61.47-23.28 61.54-23.36L61.54-23.36L61.54-23.36Q61.62-23.43 61.68-23.40L61.68-23.40L61.68-23.40Q61.74-23.40 61.65-23.27L61.65-23.27L61.65-23.27Q61.56-23.13 61.53-23.10L61.53-23.10L61.53-23.10Q59.61-21.03 57.79-18.46L57.79-18.46L57.79-18.46Q55.98-15.90 54.54-12.96L54.54-12.96L54.54-12.96Q54.66-12.90 54.79-12.90L54.79-12.90L54.79-12.90Q54.93-12.90 55.05-12.87L55.05-12.87L55.05-12.87Q55.38-13.62 55.78-14.47L55.78-14.47L55.78-14.47Q56.19-15.33 56.70-16.20L56.70-16.20L56.70-16.20Q57.21-17.13 57.82-17.98L57.82-17.98L57.82-17.98Q58.44-18.84 59.05-19.56L59.05-19.56L59.05-19.56Q59.67-20.28 60.18-20.85L60.18-20.85L60.18-20.85Q60.69-21.42 60.99-21.75L60.99-21.75L60.99-21.75Q61.11-21.87 61.21-21.96L61.21-21.96L61.21-21.96Q61.32-22.05 61.38-22.02L61.38-22.02L61.38-22.02Q61.44-21.99 61.38-21.87L61.38-21.87L61.38-21.87Q61.32-21.75 61.26-21.66L61.26-21.66L61.26-21.66Q60.90-20.94 60.37-20.00L60.37-20.00L60.37-20.00Q59.85-19.05 59.26-18.04L59.26-18.04L59.26-18.04Q58.68-17.04 58.11-16.04L58.11-16.04L58.11-16.04Q57.54-15.03 57.09-14.22L57.09-14.22L57.09-14.22Q56.88-13.83 56.65-13.46L56.65-13.46L56.65-13.46Q56.43-13.08 56.25-12.66L56.25-12.66L56.25-12.66Q56.46-12.66 56.70-12.57L56.70-12.57L56.70-12.57Q57.36-13.92 58.09-15.22L58.09-15.22L58.09-15.22Q58.83-16.53 59.70-17.85L59.70-17.85L59.70-17.85Q59.82-18 59.83-18.04L59.83-18.04L59.83-18.04Q59.85-18.09 59.91-18.03L59.91-18.03L59.91-18.03Q59.94-18 59.88-17.76L59.88-17.76L59.88-17.76Q59.55-16.89 58.90-15.45L58.90-15.45L58.90-15.45Q58.26-14.01 57.60-12.45L57.60-12.45L57.60-12.45Q58.20-12.39 58.74-12.45L58.74-12.45L58.74-12.45Q59.28-12.51 59.79-12.75L59.79-12.75L59.79-12.75Q59.82-12.75 59.85-12.76L59.85-12.76L59.85-12.76Q59.88-12.78 59.88-12.69ZM51.90-10.92L51.90-10.92L51.90-10.92Q51.90-10.80 51.70-10.63L51.70-10.63L51.70-10.63Q51.51-10.47 51.45-10.44L51.45-10.44L50.61-9.87L50.61-9.87Q50.37-9.63 50.19-9.42L50.19-9.42L50.19-9.42Q50.01-9.21 49.80-8.91L49.80-8.91L49.80-8.91Q49.74-8.85 49.72-8.79L49.72-8.79L49.72-8.79Q49.71-8.73 49.65-8.73L49.65-8.73L49.65-8.73Q49.62-8.73 49.62-8.97L49.62-8.97L49.62-8.97Q49.62-9.09 49.65-9.21L49.65-9.21L49.65-9.21Q49.80-9.63 49.95-9.91L49.95-9.91L49.95-9.91Q50.10-10.20 50.49-10.53L50.49-10.53L50.49-10.53Q50.64-10.65 50.88-10.77L50.88-10.77L50.88-10.77Q51.12-10.89 51.34-10.96L51.34-10.96L51.34-10.96Q51.57-11.04 51.73-11.04L51.73-11.04L51.73-11.04Q51.90-11.04 51.90-10.92ZM52.92-8.97L52.92-8.97L52.92-8.97Q52.50-7.83 52.23-6.72L52.23-6.72L52.23-6.72Q51.96-5.61 51.72-4.47L51.72-4.47L51.72-4.47Q51.39-2.79 51.25-1.03L51.25-1.03L51.25-1.03Q51.12 0.72 51.19 2.42L51.19 2.42L51.19 2.42Q51.27 4.11 51.55 5.70L51.55 5.70L51.55 5.70Q51.84 7.29 52.35 8.64L52.35 8.64L52.35 8.64Q52.41 8.79 52.45 8.89L52.45 8.89L52.45 8.89Q52.50 9 52.44 9L52.44 9L52.44 9Q52.35 9 52.26 8.88L52.26 8.88L52.26 8.88Q51.42 7.50 50.94 5.87L50.94 5.87L50.94 5.87Q50.46 4.23 50.32 2.40L50.32 2.40L50.32 2.40Q50.19 0.57 50.35-1.38L50.35-1.38L50.35-1.38Q50.52-3.33 50.94-5.31L50.94-5.31L50.94-5.31Q51.33-7.29 51.93-9.18L51.93-9.18L51.93-9.18Q51.69-9.24 51.51-9.27L51.51-9.27L51.51-9.27Q51.33-9.30 51.15-9.36L51.15-9.36L51.15-9.36Q51.09-9.39 50.97-9.44L50.97-9.44L50.97-9.44Q50.85-9.48 50.85-9.54L50.85-9.54L50.85-9.54Q50.85-9.60 50.94-9.63L50.94-9.63L50.94-9.63Q51.03-9.66 51.09-9.69L51.09-9.69L51.09-9.69Q52.17-10.08 53.28-9.99L53.28-9.99L53.28-9.99Q54.39-9.90 55.53-9.69L55.53-9.69L55.53-9.69Q56.22-9.57 56.95-9.51L56.95-9.51L56.95-9.51Q57.69-9.45 58.47-9.75L58.47-9.75L58.47-9.75Q58.59-9.81 58.59-9.75L58.59-9.75L58.59-9.75Q58.59-9.72 58.47-9.54L58.47-9.54L58.47-9.54Q58.14-9.03 57.49-8.87L57.49-8.87L57.49-8.87Q56.85-8.70 56.16-8.67L56.16-8.67L56.16-8.67Q55.74-7.41 55.45-6.30L55.45-6.30L55.45-6.30Q55.17-5.19 55.02-4.41L55.02-4.41L53.22 3.96L53.22 3.96Q53.16 4.23 53.13 4.42L53.13 4.42L53.13 4.42Q53.10 4.62 53.04 4.56L53.04 4.56L53.04 4.56Q52.95 4.62 52.93 4.37L52.93 4.37L52.93 4.37Q52.92 4.11 52.92 3.87L52.92 3.87L52.92 3.87Q52.92 0.96 53.47-2.27L53.47-2.27L53.47-2.27Q54.03-5.49 55.14-8.70L55.14-8.70L55.14-8.70Q54.96-8.76 54.82-8.76L54.82-8.76L54.82-8.76Q54.69-8.76 54.54-8.79L54.54-8.79L54.54-8.79Q54.09-7.62 53.71-6.45L53.71-6.45L53.71-6.45Q53.34-5.28 52.98-4.14L52.98-4.14L52.98-4.14Q52.98-4.08 52.93-3.94L52.93-3.94L52.93-3.94Q52.89-3.81 52.83-3.66L52.83-3.66L52.83-3.66Q52.77-3.51 52.69-3.40L52.69-3.40L52.69-3.40Q52.62-3.30 52.59-3.30L52.59-3.30L52.59-3.30Q52.56-3.30 52.57-3.42L52.57-3.42L52.57-3.42Q52.59-3.54 52.60-3.71L52.60-3.71L52.60-3.71Q52.62-3.87 52.63-4.04L52.63-4.04L52.63-4.04Q52.65-4.20 52.65-4.26L52.65-4.26L52.65-4.26Q52.71-5.10 52.98-6.38L52.98-6.38L52.98-6.38Q53.25-7.65 53.58-8.88L53.58-8.88L53.58-8.88Q53.22-8.88 52.92-8.97ZM53.28 8.88L53.28 8.88L53.28 8.88Q53.22 8.91 53.07 8.76L53.07 8.76L53.07 8.76Q53.01 8.70 52.98 8.64L52.98 8.64L52.98 8.64Q52.80 8.34 52.66 8.08L52.66 8.08L52.66 8.08Q52.53 7.83 52.41 7.51L52.41 7.51L52.41 7.51Q52.29 7.20 52.18 6.75L52.18 6.75L52.18 6.75Q52.08 6.30 51.99 5.61L51.99 5.61L51.99 5.61Q51.90 5.10 51.87 4.30L51.87 4.30L51.87 4.30Q51.84 3.51 51.84 2.76L51.84 2.76L51.84 2.76Q51.84 2.01 51.90 1.47L51.90 1.47L51.90 1.47Q51.96 0.93 52.05 0.93L52.05 0.93L52.05 0.93Q52.11 0.93 52.17 1.16L52.17 1.16L52.17 1.16Q52.23 1.38 52.26 1.68L52.26 1.68L52.26 1.68Q52.29 1.98 52.30 2.27L52.30 2.27L52.30 2.27Q52.32 2.55 52.32 2.67L52.32 2.67L52.59 5.43L52.59 5.43Q52.68 6.24 52.86 6.99L52.86 6.99L52.86 6.99Q53.04 7.74 53.25 8.49L53.25 8.49L53.25 8.49Q53.28 8.61 53.29 8.74L53.29 8.74L53.29 8.74Q53.31 8.88 53.28 8.88ZM67.95-12.48L67.95-12.48L67.95-12.48Q67.62-11.25 66.96-10.39L66.96-10.39L66.96-10.39Q66.30-9.54 65.58-8.88L65.58-8.88L65.58-8.88Q65.49-8.82 65.27-8.64L65.27-8.64L65.27-8.64Q65.04-8.46 64.98-8.52L64.98-8.52L64.98-8.52Q64.89-8.58 65.05-8.80L65.05-8.80L65.05-8.80Q65.22-9.03 65.31-9.12L65.31-9.12L65.31-9.12Q65.58-9.48 65.88-10.02L65.88-10.02L65.88-10.02Q66.18-10.56 66.44-11.16L66.44-11.16L66.44-11.16Q66.69-11.76 66.84-12.33L66.84-12.33L66.84-12.33Q66.99-12.90 66.99-13.35L66.99-13.35L66.99-13.35Q66.99-13.74 66.84-14.19L66.84-14.19L66.84-14.19Q66.69-14.64 66.36-15.03L66.36-15.03L66.36-15.03Q66.03-15.42 65.44-15.64L65.44-15.64L65.44-15.64Q64.86-15.87 64.02-15.81L64.02-15.81L64.02-15.81Q63.21-15.75 62.56-15.40L62.56-15.40L62.56-15.40Q61.92-15.06 61.47-14.59L61.47-14.59L61.47-14.59Q61.02-14.13 60.75-13.66L60.75-13.66L60.75-13.66Q60.48-13.20 60.45-12.90L60.45-12.90L60.45-12.90Q60.42-12.72 60.42-12.71L60.42-12.71L60.42-12.71Q60.42-12.69 60.36-12.66L60.36-12.66L60.36-12.66Q60.33-12.66 60.28-12.75L60.28-12.75L60.28-12.75Q60.24-12.84 60.24-12.90L60.24-12.90L60.24-12.90Q60.12-13.53 60.40-14.37L60.40-14.37L60.40-14.37Q60.69-15.21 61.53-15.96L61.53-15.96L61.53-15.96Q62.31-16.65 63.45-16.86L63.45-16.86L63.45-16.86Q64.59-17.07 65.55-16.77L65.55-16.77L65.55-16.77Q66.18-16.59 66.70-16.13L66.70-16.13L66.70-16.13Q67.23-15.66 67.56-15.07L67.56-15.07L67.56-15.07Q67.89-14.49 68.01-13.80L68.01-13.80L68.01-13.80Q68.13-13.11 67.95-12.48ZM67.86-2.55L67.86-2.55L67.86-2.55Q67.62-2.28 67.35-1.98L67.35-1.98L67.35-1.98Q67.08-1.68 66.66-1.47L66.66-1.47L66.66-1.47Q66.48-1.38 66.24-1.30L66.24-1.30L66.24-1.30Q66-1.23 65.79-1.20L65.79-1.20L65.79-1.20Q65.58-1.17 65.43-1.19L65.43-1.19L65.43-1.19Q65.28-1.20 65.31-1.32L65.31-1.32L65.31-1.32Q65.31-1.38 65.50-1.47L65.50-1.47L65.50-1.47Q65.70-1.56 65.76-1.59L65.76-1.59L65.76-1.59Q66.03-1.74 66.25-1.84L66.25-1.84L66.25-1.84Q66.48-1.95 66.69-2.10L66.69-2.10L66.69-2.10Q67.26-2.46 67.86-2.88L67.86-2.88L67.86-2.88Q68.07-3.03 68.01-2.85L68.01-2.85L68.01-2.85Q67.95-2.67 67.86-2.55ZM66.51-2.46L66.51-2.46L66.51-2.46Q66.48-2.40 66.24-2.34L66.24-2.34L66.24-2.34Q65.16-2.19 64.13-2.37L64.13-2.37L64.13-2.37Q63.09-2.55 62.04-2.82L62.04-2.82L62.04-2.82Q61.32-3.03 60.55-3.06L60.55-3.06L60.55-3.06Q59.79-3.09 59.01-2.67L59.01-2.67L59.01-2.67Q58.89-2.61 58.89-2.70L58.89-2.70L58.89-2.70Q58.89-2.76 58.92-2.83L58.92-2.83L58.92-2.83Q58.95-2.91 58.98-2.97L58.98-2.97L58.98-2.97Q59.91-4.89 61.33-6.90L61.33-6.90L61.33-6.90Q62.76-8.91 64.20-10.65L64.20-10.65L64.20-10.65Q65.28-11.97 65.44-12.95L65.44-12.95L65.44-12.95Q65.61-13.92 64.68-14.31L64.68-14.31L64.68-14.31Q64.11-14.55 63.52-14.41L63.52-14.41L63.52-14.41Q62.94-14.28 62.41-13.90L62.41-13.90L62.41-13.90Q61.89-13.53 61.51-12.99L61.51-12.99L61.51-12.99Q61.14-12.45 60.99-11.85L60.99-11.85L60.99-11.85Q60.96-11.70 60.87-11.70L60.87-11.70L60.87-11.70Q60.78-11.70 60.78-11.79L60.78-11.79L60.78-11.88L60.78-11.88Q60.72-12.63 61.08-13.37L61.08-13.37L61.08-13.37Q61.44-14.10 62.05-14.63L62.05-14.63L62.05-14.63Q62.67-15.15 63.48-15.34L63.48-15.34L63.48-15.34Q64.29-15.54 65.13-15.18L65.13-15.18L65.13-15.18Q65.97-14.82 66.21-14.16L66.21-14.16L66.21-14.16Q66.45-13.50 66.25-12.71L66.25-12.71L66.25-12.71Q66.06-11.91 65.55-11.10L65.55-11.10L65.55-11.10Q65.04-10.29 64.41-9.63L64.41-9.63L64.41-9.63Q63.81-9 63.19-8.23L63.19-8.23L63.19-8.23Q62.58-7.47 62.02-6.66L62.02-6.66L62.02-6.66Q61.47-5.85 60.99-5.08L60.99-5.08L60.99-5.08Q60.51-4.32 60.21-3.69L60.21-3.69L60.21-3.69Q60.33-3.75 60.66-3.76L60.66-3.76L60.66-3.76Q60.99-3.78 61.11-3.78L61.11-3.78L61.11-3.78Q61.32-4.14 61.56-4.48L61.56-4.48L61.56-4.48Q61.80-4.83 62.02-5.10L62.02-5.10L62.02-5.10Q62.25-5.37 62.41-5.52L62.41-5.52L62.41-5.52Q62.58-5.67 62.67-5.64L62.67-5.64L62.67-5.64Q62.70-5.61 62.64-5.44L62.64-5.44L62.64-5.44Q62.58-5.28 62.47-5.07L62.47-5.07L62.47-5.07Q62.37-4.86 62.26-4.67L62.26-4.67L62.26-4.67Q62.16-4.47 62.13-4.41L62.13-4.41L61.80-3.78L61.80-3.78Q61.95-3.75 62.11-3.75L62.11-3.75L62.11-3.75Q62.28-3.75 62.43-3.69L62.43-3.69L62.43-3.69Q63.12-4.74 63.91-5.67L63.91-5.67L63.91-5.67Q64.71-6.60 65.55-7.56L65.55-7.56L65.55-7.56Q65.97-8.04 66.46-8.61L66.46-8.61L66.46-8.61Q66.96-9.18 67.38-9.82L67.38-9.82L67.38-9.82Q67.80-10.47 68.11-11.25L68.11-11.25L68.11-11.25Q68.43-12.03 68.52-12.99L68.52-12.99L68.52-12.99Q68.55-13.56 68.38-14.17L68.38-14.17L68.38-14.17Q68.22-14.79 67.88-15.36L67.88-15.36L67.88-15.36Q67.53-15.93 67.03-16.38L67.03-16.38L67.03-16.38Q66.54-16.83 65.91-17.07L65.91-17.07L65.91-17.07Q64.65-17.55 63.37-17.29L63.37-17.29L63.37-17.29Q62.10-17.04 61.14-16.29L61.14-16.29L61.14-16.29Q60.99-16.14 60.94-16.13L60.94-16.13L60.94-16.13Q60.90-16.11 60.87-16.14L60.87-16.14L60.87-16.14Q60.84-16.17 60.88-16.26L60.88-16.26L60.88-16.26Q60.93-16.35 60.99-16.44L60.99-16.44L60.99-16.44Q61.32-16.95 62.10-17.40L62.10-17.40L62.10-17.40Q62.88-17.85 63.96-18L63.96-18L63.96-18Q64.47-18.09 65.11-18.02L65.11-18.02L65.11-18.02Q65.76-17.94 66.41-17.70L66.41-17.70L66.41-17.70Q67.05-17.46 67.63-17.04L67.63-17.04L67.63-17.04Q68.22-16.62 68.67-15.96L68.67-15.96L68.67-15.96Q69.12-15.27 69.31-14.56L69.31-14.56L69.31-14.56Q69.51-13.86 69.52-13.17L69.52-13.17L69.52-13.17Q69.54-12.48 69.41-11.87L69.41-11.87L69.41-11.87Q69.27-11.25 69.09-10.80L69.09-10.80L69.09-10.80Q68.70-9.84 68.23-9.16L68.23-9.16L68.23-9.16Q67.77-8.49 67.41-8.07L67.41-8.07L67.41-8.07Q66.36-6.81 65.17-5.68L65.17-5.68L65.17-5.68Q63.99-4.56 62.97-3.63L62.97-3.63L62.97-3.63Q63.15-3.63 63.30-3.60L63.30-3.60L63.30-3.60Q63.45-3.57 63.57-3.54L63.57-3.54L63.57-3.54Q64.29-3.39 65.02-3.15L65.02-3.15L65.02-3.15Q65.76-2.91 66.33-2.64L66.33-2.64L66.33-2.64Q66.54-2.52 66.51-2.46ZM67.80-1.74L67.80-1.74L67.80-1.74Q67.20-0.96 66.63-0.53L66.63-0.53L66.63-0.53Q66.06-0.09 65.50 0.12L65.50 0.12L65.50 0.12Q64.95 0.33 64.41 0.34L64.41 0.34L64.41 0.34Q63.87 0.36 63.33 0.30L63.33 0.30L63.33 0.30Q62.61 0.21 61.86 0.06L61.86 0.06L61.86 0.06Q61.11-0.09 60.42-0.16L60.42-0.16L60.42-0.16Q59.73-0.24 59.13-0.20L59.13-0.20L59.13-0.20Q58.53-0.15 58.11 0.12L58.11 0.12L58.11 0.12Q58.02 0.21 58.00 0.14L58.00 0.14L58.00 0.14Q57.99 0.06 58.02 0L58.02 0L58.02 0Q58.41-0.66 59.05-0.84L59.05-0.84L59.05-0.84Q59.70-1.02 60.46-0.94L60.46-0.94L60.46-0.94Q61.23-0.87 62.04-0.66L62.04-0.66L62.04-0.66Q62.85-0.45 63.57-0.33L63.57-0.33L63.57-0.33Q64.50-0.18 65.58-0.51L65.58-0.51L65.58-0.51Q66.66-0.84 67.74-1.98L67.74-1.98L67.74-1.98Q67.86-2.10 67.86-1.96L67.86-1.96L67.86-1.96Q67.86-1.83 67.80-1.74ZM63.90-1.35L63.90-1.35L63.90-1.35Q63.90-1.26 63.78-1.24L63.78-1.24L63.78-1.24Q63.66-1.23 63.63-1.23L63.63-1.23L63.63-1.23Q63.21-1.17 62.53-1.23L62.53-1.23L62.53-1.23Q61.86-1.29 61.47-1.35L61.47-1.35L61.47-1.35Q61.20-1.38 60.72-1.38L60.72-1.38L60.72-1.38Q60.24-1.38 59.74-1.32L59.74-1.32L59.74-1.32Q59.25-1.26 58.81-1.11L58.81-1.11L58.81-1.11Q58.38-0.96 58.23-0.66L58.23-0.66L58.23-0.66Q58.08-0.39 58.06-0.55L58.06-0.55L58.06-0.55Q58.05-0.72 58.08-0.81L58.08-0.81L58.08-0.81Q58.17-1.26 58.47-1.59L58.47-1.59L58.47-1.59Q58.77-1.92 59.16-2.13L59.16-2.13L59.16-2.13Q59.55-2.34 59.94-2.43L59.94-2.43L59.94-2.43Q60.33-2.52 60.63-2.52L60.63-2.52L60.63-2.52Q61.44-2.46 62.14-2.27L62.14-2.27L62.14-2.27Q62.85-2.07 63.57-1.65L63.57-1.65L63.57-1.65Q63.63-1.62 63.76-1.53L63.76-1.53L63.76-1.53Q63.90-1.44 63.90-1.35ZM81.66-10.56L81.66-10.56L81.66-10.56Q81.42-9.36 80.85-8.16L80.85-8.16L80.85-8.16Q80.28-6.96 79.77-5.91L79.77-5.91L79.77-5.91Q79.74-5.85 79.63-5.70L79.63-5.70L79.63-5.70Q79.53-5.55 79.47-5.55L79.47-5.55L79.47-5.55Q79.38-5.58 79.38-5.75L79.38-5.75L79.38-5.75Q79.38-5.91 79.38-5.97L79.38-5.97L79.38-5.97Q79.41-6.24 79.48-6.61L79.48-6.61L79.48-6.61Q79.56-6.99 79.62-7.39L79.62-7.39L79.62-7.39Q79.68-7.80 79.75-8.17L79.75-8.17L79.75-8.17Q79.83-8.55 79.92-8.85L79.92-8.85L79.92-8.85Q80.19-9.87 80.37-10.61L80.37-10.61L80.37-10.61Q80.55-11.34 80.64-11.94L80.64-11.94L80.64-11.94Q80.73-12.54 80.74-13.08L80.74-13.08L80.74-13.08Q80.76-13.62 80.67-14.25L80.67-14.25L80.67-14.25Q80.64-14.49 80.70-14.55L80.70-14.55L80.70-14.55Q80.76-14.58 80.85-14.49L80.85-14.49L80.85-14.49Q80.94-14.40 81-14.31L81-14.31L81-14.31Q81.51-13.50 81.69-12.53L81.69-12.53L81.69-12.53Q81.87-11.55 81.66-10.56ZM82.26-12.75L82.38-12.57L82.38-12.57Q82.77-12 82.77-11.07L82.77-11.07L82.77-11.07Q82.77-10.14 82.59-9.16L82.59-9.16L82.59-9.16Q82.41-8.19 82.14-7.29L82.14-7.29L82.14-7.29Q81.87-6.39 81.75-5.85L81.75-5.85L81.75-5.85Q81.51-4.80 81.09-3.75L81.09-3.75L81.09-3.75Q80.67-2.70 80.37-1.89L80.37-1.89L80.37-1.89Q80.34-1.80 80.28-1.69L80.28-1.69L80.28-1.69Q80.22-1.59 80.16-1.59L80.16-1.59L80.16-1.59Q80.10-1.59 80.10-1.71L80.10-1.71L80.10-1.71Q80.10-1.83 80.10-1.92L80.10-1.92L80.10-1.92Q80.01-3.57 80.46-5.14L80.46-5.14L80.46-5.14Q80.91-6.72 81.42-8.34L81.42-8.34L81.42-8.34Q81.72-9.33 81.99-10.37L81.99-10.37L81.99-10.37Q82.26-11.40 82.23-12.63L82.23-12.63L82.23-12.63Q82.23-12.75 82.26-12.75L82.26-12.75ZM79.56-13.08L79.56-13.08L79.56-13.08Q77.73-12.33 76.45-10.93L76.45-10.93L76.45-10.93Q75.18-9.54 74.49-7.80L74.49-7.80L74.49-7.80Q74.19-7.02 74.04-6.40L74.04-6.40L74.04-6.40Q73.89-5.79 73.80-5.07L73.80-5.07L73.80-5.07Q73.77-4.92 73.89-4.77L73.89-4.77L73.89-4.77Q74.01-4.62 74.13-4.77L74.13-4.77L74.13-4.77Q74.67-5.43 75.51-6.45L75.51-6.45L75.51-6.45Q76.35-7.47 77.19-8.61L77.19-8.61L77.19-8.61Q78.03-9.75 78.70-10.92L78.70-10.92L78.70-10.92Q79.38-12.09 79.56-13.08ZM77.55-2.91L77.55-2.91L77.55-2.91Q77.10-2.28 76.68-1.74L76.68-1.74L76.68-1.74Q76.26-1.20 75.75-0.79L75.75-0.79L75.75-0.79Q75.24-0.39 74.61-0.15L74.61-0.15L74.61-0.15Q73.98 0.09 73.17 0.12L73.17 0.12L73.17 0.12Q71.82 0.18 71.11-0.57L71.11-0.57L71.11-0.57Q70.41-1.32 70.14-2.40L70.14-2.40L70.14-2.40Q69.87-3.48 69.94-4.63L69.94-4.63L69.94-4.63Q70.02-5.79 70.26-6.54L70.26-6.54L70.26-6.54Q70.59-7.59 71.05-8.54L71.05-8.54L71.05-8.54Q71.52-9.48 72.04-10.24L72.04-10.24L72.04-10.24Q72.57-11.01 73.13-11.56L73.13-11.56L73.13-11.56Q73.68-12.12 74.22-12.42L74.22-12.42L74.22-12.42Q74.25-12.42 74.35-12.48L74.35-12.48L74.35-12.48Q74.46-12.54 74.46-12.45L74.46-12.45L74.46-12.45Q74.49-12.45 74.43-12.36L74.43-12.36L74.43-12.36Q74.37-12.27 74.31-12.21L74.31-12.21L74.31-12.21Q72.75-10.59 71.83-8.55L71.83-8.55L71.83-8.55Q70.92-6.51 70.80-4.35L70.80-4.35L70.80-4.35Q70.77-3.81 70.84-3.18L70.84-3.18L70.84-3.18Q70.92-2.55 71.14-1.99L71.14-1.99L71.14-1.99Q71.37-1.44 71.79-1.06L71.79-1.06L71.79-1.06Q72.21-0.69 72.93-0.69L72.93-0.69L72.93-0.69Q73.50-0.69 73.98-0.89L73.98-0.89L73.98-0.89Q74.46-1.08 74.88-1.40L74.88-1.40L74.88-1.40Q75.30-1.71 75.64-2.08L75.64-2.08L75.64-2.08Q75.99-2.46 76.26-2.79L76.26-2.79L76.26-2.79Q76.86-3.54 77.37-4.35L77.37-4.35L77.37-4.35Q77.37-4.95 77.44-5.52L77.44-5.52L77.44-5.52Q77.52-6.09 77.67-6.66L77.67-6.66L77.67-6.66Q77.76-7.08 77.83-7.33L77.83-7.33L77.83-7.33Q77.91-7.59 77.98-7.81L77.98-7.81L77.98-7.81Q78.06-8.04 78.13-8.29L78.13-8.29L78.13-8.29Q78.21-8.55 78.36-8.97L78.36-8.97L78.36-8.97Q77.88-8.13 77.41-7.39L77.41-7.39L77.41-7.39Q76.95-6.66 76.42-5.98L76.42-5.98L76.42-5.98Q75.90-5.31 75.34-4.67L75.34-4.67L75.34-4.67Q74.79-4.02 74.13-3.36L74.13-3.36L74.13-3.36Q73.62-2.85 73.29-3.03L73.29-3.03L73.29-3.03Q72.96-3.21 72.90-3.87L72.90-3.87L72.90-3.87Q72.84-4.89 73.00-5.85L73.00-5.85L73.00-5.85Q73.17-6.81 73.59-7.86L73.59-7.86L73.59-7.86Q73.98-8.82 74.56-9.72L74.56-9.72L74.56-9.72Q75.15-10.62 75.91-11.36L75.91-11.36L75.91-11.36Q76.68-12.09 77.61-12.62L77.61-12.62L77.61-12.62Q78.54-13.14 79.59-13.32L79.59-13.32L79.59-13.32Q79.65-13.65 79.69-13.89L79.69-13.89L79.69-13.89Q79.74-14.13 79.77-14.37L79.77-14.37L79.77-14.37Q79.83-14.70 79.83-14.70L79.83-14.70L79.83-14.70Q79.89-14.73 79.96-14.64L79.96-14.64L79.96-14.64Q80.04-14.55 80.10-14.40L80.10-14.40L80.10-14.40Q80.46-13.41 80.34-12.42L80.34-12.42L80.34-12.42Q80.22-11.43 79.90-10.41L79.90-10.41L79.90-10.41Q79.59-9.39 79.17-8.32L79.17-8.32L79.17-8.32Q78.75-7.26 78.48-6.18L78.48-6.18L78.48-6.18Q78.12-4.65 78.28-3.01L78.28-3.01L78.28-3.01Q78.45-1.38 79.56-0.06L79.56-0.06L79.56-0.06Q79.65 0.06 79.65 0.06L79.65 0.06L79.65 0.06Q79.62 0.09 79.47 0L79.47 0L79.47 0Q78.60-0.54 78.16-1.30L78.16-1.30L78.16-1.30Q77.73-2.07 77.55-2.91ZM78.60-13.53L78.60-13.53L78.60-13.53Q78.66-13.47 78.58-13.44L78.58-13.44L78.58-13.44Q78.51-13.41 78.27-13.35L78.27-13.35L78.27-13.35Q77.88-13.23 77.32-12.90L77.32-12.90L77.32-12.90Q76.77-12.57 76.15-12.06L76.15-12.06L76.15-12.06Q75.54-11.55 74.94-10.88L74.94-10.88L74.94-10.88Q74.34-10.20 73.89-9.42L73.89-9.42L73.89-9.42Q73.44-8.61 73.13-7.83L73.13-7.83L73.13-7.83Q72.81-7.05 72.61-6.40L72.61-6.40L72.61-6.40Q72.42-5.76 72.33-5.29L72.33-5.29L72.33-5.29Q72.24-4.83 72.24-4.65L72.24-4.65L72.24-4.65Q72.24-4.20 72.24-3.71L72.24-3.71L72.24-3.71Q72.24-3.21 72.36-2.82L72.36-2.82L72.36-2.82Q72.48-2.43 72.78-2.22L72.78-2.22L72.78-2.22Q73.08-2.01 73.68-2.10L73.68-2.10L73.68-2.10Q73.71-2.10 73.83-2.15L73.83-2.15L73.83-2.15Q73.95-2.19 74.07-2.23L74.07-2.23L74.07-2.23Q74.19-2.28 74.29-2.31L74.29-2.31L74.29-2.31Q74.40-2.34 74.43-2.34L74.43-2.34L74.43-2.34Q74.46-2.28 74.38-2.19L74.38-2.19L74.38-2.19Q74.31-2.10 74.19-1.99L74.19-1.99L74.19-1.99Q74.07-1.89 73.96-1.80L73.96-1.80L73.96-1.80Q73.86-1.71 73.83-1.68L73.83-1.68L73.83-1.68Q73.08-1.23 72.57-1.41L72.57-1.41L72.57-1.41Q72.06-1.59 71.77-2.08L71.77-2.08L71.77-2.08Q71.49-2.58 71.38-3.25L71.38-3.25L71.38-3.25Q71.28-3.93 71.31-4.47L71.31-4.47L71.31-4.47Q71.37-5.52 71.64-6.55L71.64-6.55L71.64-6.55Q71.91-7.59 72.33-8.64L72.33-8.64L72.33-8.64Q72.66-9.45 73.32-10.30L73.32-10.30L73.32-10.30Q73.98-11.16 74.80-11.88L74.80-11.88L74.80-11.88Q75.63-12.60 76.53-13.06L76.53-13.06L76.53-13.06Q77.43-13.53 78.27-13.56L78.27-13.56L78.27-13.56Q78.57-13.56 78.60-13.53ZM80.37-0.06L80.37-0.06L80.37-0.06Q80.43 0.03 80.40 0.06L80.40 0.06L80.40 0.06Q80.31 0.06 80.16 0L80.16 0L80.16 0Q80.07-0.06 79.68-0.36L79.68-0.36L79.68-0.36Q79.29-0.66 79.11-1.32L79.11-1.32L79.11-1.32Q79.05-1.56 79.00-1.93L79.00-1.93L79.00-1.93Q78.96-2.31 78.96-2.64L78.96-2.64L78.96-2.64Q78.96-2.97 79.00-3.21L79.00-3.21L79.00-3.21Q79.05-3.45 79.14-3.45L79.14-3.45L79.14-3.45Q79.23-3.45 79.33-3.09L79.33-3.09L79.33-3.09Q79.44-2.73 79.47-2.64L79.47-2.64L79.47-2.64Q79.56-2.22 79.63-1.91L79.63-1.91L79.63-1.91Q79.71-1.59 79.80-1.32L79.80-1.32L79.80-1.32Q79.92-0.99 80.11-0.57L80.11-0.57L80.11-0.57Q80.31-0.15 80.37-0.06ZM86.40-11.07L86.40-11.07L86.40-11.07Q86.43-11.34 86.58-11.71L86.58-11.71L86.58-11.71Q86.73-12.09 86.98-12.43L86.98-12.43L86.98-12.43Q87.24-12.78 87.60-13.06L87.60-13.06L87.60-13.06Q87.96-13.35 88.41-13.44L88.41-13.44L88.41-13.44Q89.37-13.62 90-13.32L90-13.32L90-13.32Q90.63-13.02 90.96-12.63L90.96-12.63L90.96-12.63Q91.08-12.45 91.05-12.42L91.05-12.42L91.05-12.42Q90.99-12.36 90.84-12.45L90.84-12.45L90.84-12.45Q90.66-12.57 90.25-12.66L90.25-12.66L90.25-12.66Q89.85-12.75 89.38-12.71L89.38-12.71L89.38-12.71Q88.92-12.66 88.48-12.42L88.48-12.42L88.48-12.42Q88.05-12.18 87.78-11.64L87.78-11.64L87.78-11.64Q87.54-11.13 87.45-10.59L87.45-10.59L87.45-10.59Q87.36-10.05 87.34-9.58L87.34-9.58L87.34-9.58Q87.33-9.12 87.36-8.79L87.36-8.79L87.36-8.79Q87.39-8.46 87.39-8.34L87.39-8.34L87.39-8.34Q87.45-8.01 87.49-7.51L87.49-7.51L87.49-7.51Q87.54-7.02 87.54-6.51L87.54-6.51L87.54-6.51Q87.54-6 87.51-5.50L87.51-5.50L87.51-5.50Q87.48-5.01 87.39-4.65L87.39-4.65L87.39-4.65Q87.36-4.56 87.31-4.35L87.31-4.35L87.31-4.35Q87.27-4.14 87.21-4.14L87.21-4.14L87.21-4.14Q87.06-4.14 87.06-4.35L87.06-4.35L87.06-4.35Q87.06-4.56 87.06-4.65L87.06-4.65L87.06-4.65Q87-5.40 86.85-6.17L86.85-6.17L86.85-6.17Q86.70-6.93 86.56-7.74L86.56-7.74L86.56-7.74Q86.43-8.55 86.37-9.38L86.37-9.38L86.37-9.38Q86.31-10.20 86.40-11.07ZM85.35-5.13L85.35-5.13L85.35-5.13Q85.38-5.73 85.24-6.83L85.24-6.83L85.24-6.83Q85.11-7.92 85.14-9.36L85.14-9.36L85.14-9.36Q85.17-10.11 85.29-10.90L85.29-10.90L85.29-10.90Q85.41-11.70 85.86-12.48L85.86-12.48L85.86-12.48Q86.34-13.32 87.07-13.72L87.07-13.72L87.07-13.72Q87.81-14.13 88.35-14.10L88.35-14.10L88.35-14.10Q88.44-14.10 88.53-14.10L88.53-14.10L88.53-14.10Q88.62-14.10 88.62-14.07L88.62-14.07L88.62-14.07Q88.62-14.01 88.59-14.03L88.59-14.03L88.59-14.03Q88.56-14.04 88.38-13.98L88.38-13.98L88.38-13.98Q87.84-13.83 87.42-13.48L87.42-13.48L87.42-13.48Q87-13.14 86.70-12.69L86.70-12.69L86.70-12.69Q86.40-12.24 86.22-11.76L86.22-11.76L86.22-11.76Q86.04-11.28 86.01-10.89L86.01-10.89L86.01-10.89Q85.83-9.24 86.04-8.01L86.04-8.01L86.04-8.01Q86.19-7.02 86.28-5.96L86.28-5.96L86.28-5.96Q86.37-4.89 86.20-4.00L86.20-4.00L86.20-4.00Q86.04-3.12 85.57-2.53L85.57-2.53L85.57-2.53Q85.11-1.95 84.15-1.89L84.15-1.89L84.15-1.89Q84.06-1.89 83.92-1.91L83.92-1.91L83.92-1.91Q83.79-1.92 83.79-1.98L83.79-1.98L83.79-1.98Q83.79-2.04 84.06-2.19L84.06-2.19L84.06-2.19Q84.84-2.55 85.08-3.24L85.08-3.24L85.08-3.24Q85.32-3.93 85.35-5.13ZM82.17-1.59L82.17-1.59L82.17-1.59Q82.59-0.93 83.50-0.61L83.50-0.61L83.50-0.61Q84.42-0.30 85.68-0.66L85.68-0.66L85.68-0.66Q86.31-0.84 86.79-1.29L86.79-1.29L86.79-1.29Q87.27-1.74 87.58-2.29L87.58-2.29L87.58-2.29Q87.90-2.85 88.06-3.45L88.06-3.45L88.06-3.45Q88.23-4.05 88.26-4.56L88.26-4.56L88.26-4.56Q88.29-5.40 88.21-6.21L88.21-6.21L88.21-6.21Q88.14-7.02 88.03-7.79L88.03-7.79L88.03-7.79Q87.93-8.55 87.85-9.27L87.85-9.27L87.85-9.27Q87.78-9.99 87.84-10.68L87.84-10.68L87.84-10.68Q87.90-11.43 88.26-11.82L88.26-11.82L88.26-11.82Q88.62-12.21 89.14-12.31L89.14-12.31L89.14-12.31Q89.67-12.42 90.24-12.24L90.24-12.24L90.24-12.24Q90.81-12.06 91.29-11.67L91.29-11.67L91.29-11.67Q91.41-11.61 91.38-11.52L91.38-11.52L91.38-11.52Q91.38-11.46 91.32-11.49L91.32-11.49L91.32-11.49Q91.26-11.52 91.20-11.55L91.20-11.55L91.20-11.55Q90.09-11.91 89.47-11.76L89.47-11.76L89.47-11.76Q88.86-11.61 88.80-10.68L88.80-10.68L88.80-10.68Q88.74-9.60 88.96-8.14L88.96-8.14L88.96-8.14Q89.19-6.69 89.13-4.92L89.13-4.92L89.13-4.92Q89.16-4.32 88.99-3.54L88.99-3.54L88.99-3.54Q88.83-2.76 88.45-2.02L88.45-2.02L88.45-2.02Q88.08-1.29 87.46-0.72L87.46-0.72L87.46-0.72Q86.85-0.15 86.01 0L86.01 0L86.01 0Q84.42 0.24 83.47-0.18L83.47-0.18L83.47-0.18Q82.53-0.60 82.11-1.47L82.11-1.47L82.11-1.47Q82.05-1.65 82.05-1.68L82.05-1.68L82.08-1.68L82.08-1.68Q82.08-1.68 82.17-1.59ZM83.49-1.59L83.49-1.59L83.49-1.59Q84.06-1.44 84.87-1.47L84.87-1.47L84.87-1.47Q85.14-1.50 85.53-1.62L85.53-1.62L85.53-1.62Q85.92-1.74 85.95-1.68L85.95-1.68L85.95-1.68Q86.04-1.56 85.77-1.38L85.77-1.38L85.77-1.38Q85.50-1.20 85.08-1.06L85.08-1.06L85.08-1.06Q84.66-0.93 84.21-0.89L84.21-0.89L84.21-0.89Q83.76-0.84 83.46-0.96L83.46-0.96L83.46-0.96Q82.89-1.20 82.63-1.48L82.63-1.48L82.63-1.48Q82.38-1.77 82.17-2.19L82.17-2.19L82.11-2.31L82.11-2.31Q82.05-2.43 82.08-2.46L82.08-2.46L82.08-2.46Q82.11-2.49 82.17-2.46L82.17-2.46L82.17-2.46Q82.20-2.43 82.20-2.40L82.20-2.40L82.20-2.40Q82.56-2.07 82.81-1.91L82.81-1.91L82.81-1.91Q83.07-1.74 83.49-1.59ZM95.79-9.90L95.79-9.90L95.79-9.90Q95.88-10.29 95.89-10.80L95.89-10.80L95.89-10.80Q95.91-11.31 95.82-11.85L95.82-11.85L95.82-11.85Q95.73-12.39 95.50-12.88L95.50-12.88L95.50-12.88Q95.28-13.38 94.92-13.74L94.92-13.74L94.92-13.74Q94.74-13.86 94.71-13.86L94.71-13.86L94.71-13.86Q94.59-13.86 94.71-13.68L94.71-13.68L94.71-13.68Q94.89-13.29 94.84-12.46L94.84-12.46L94.84-12.46Q94.80-11.64 94.65-10.75L94.65-10.75L94.65-10.75Q94.50-9.87 94.33-9.16L94.33-9.16L94.33-9.16Q94.17-8.46 94.14-8.31L94.14-8.31L94.14-8.31Q93.93-7.77 93.76-6.96L93.76-6.96L93.76-6.96Q93.60-6.15 93.60-5.64L93.60-5.64L93.60-5.64Q93.57-5.58 93.57-5.40L93.57-5.40L93.57-5.40Q93.57-5.22 93.66-5.19L93.66-5.19L93.66-5.19Q93.69-5.19 93.78-5.34L93.78-5.34L93.78-5.34Q93.87-5.49 93.93-5.55L93.93-5.55L93.93-5.55Q94.47-6.51 94.96-7.65L94.96-7.65L94.96-7.65Q95.46-8.79 95.79-9.90ZM95.91-5.37L95.91-5.37L95.91-5.37Q96.03-5.91 96.30-6.76L96.30-6.76L96.30-6.76Q96.57-7.62 96.75-8.54L96.75-8.54L96.75-8.54Q96.93-9.45 96.93-10.33L96.93-10.33L96.93-10.33Q96.93-11.22 96.57-11.79L96.57-11.79L96.57-11.79Q96.45-11.91 96.39-11.91L96.39-11.91L96.39-11.91Q96.33-11.91 96.36-11.79L96.36-11.79L96.36-11.79Q96.36-10.65 96.10-9.67L96.10-9.67L96.10-9.67Q95.85-8.70 95.55-7.77L95.55-7.77L95.55-7.77Q95.04-6.24 94.62-4.79L94.62-4.79L94.62-4.79Q94.20-3.33 94.26-1.80L94.26-1.80L94.26-1.80Q94.26-1.71 94.27-1.60L94.27-1.60L94.27-1.60Q94.29-1.50 94.38-1.50L94.38-1.50L94.38-1.50Q94.44-1.50 94.47-1.56L94.47-1.56L94.47-1.56Q94.50-1.62 94.56-1.74L94.56-1.74L94.56-1.74Q94.86-2.46 95.25-3.44L95.25-3.44L95.25-3.44Q95.64-4.41 95.91-5.37ZM93.78 0L93.78 0L93.78 0Q93.21-0.60 92.91-1.33L92.91-1.33L92.91-1.33Q92.61-2.07 92.49-2.83L92.49-2.83L92.49-2.83Q92.37-3.60 92.43-4.38L92.43-4.38L92.43-4.38Q92.49-5.16 92.67-5.85L92.67-5.85L92.67-5.85Q92.94-6.93 93.36-8.01L93.36-8.01L93.36-8.01Q93.78-9.09 94.08-10.15L94.08-10.15L94.08-10.15Q94.38-11.22 94.42-12.25L94.42-12.25L94.42-12.25Q94.47-13.29 93.99-14.28L93.99-14.28L93.99-14.28Q93.90-14.43 93.87-14.43L93.87-14.43L93.87-14.43Q93.84-14.43 93.84-14.38L93.84-14.38L93.84-14.38Q93.84-14.34 93.87-14.31L93.87-14.31L93.87-14.31Q93.96-13.41 93.75-12.45L93.75-12.45L93.75-12.45Q93.54-11.49 93.21-10.48L93.21-10.48L93.21-10.48Q92.88-9.48 92.47-8.41L92.47-8.41L92.47-8.41Q92.07-7.35 91.80-6.24L91.80-6.24L91.80-6.24Q91.59-5.43 91.51-4.59L91.51-4.59L91.51-4.59Q91.44-3.75 91.62-2.92L91.62-2.92L91.62-2.92Q91.80-2.10 92.28-1.35L92.28-1.35L92.28-1.35Q92.76-0.60 93.66 0.03L93.66 0.03L93.66 0.03Q93.72 0.09 93.81 0.10L93.81 0.10L93.81 0.10Q93.90 0.12 93.78 0ZM94.02-1.14L94.02-1.14L94.02-1.14Q93.93-1.38 93.82-1.74L93.82-1.74L93.82-1.74Q93.72-2.10 93.66-2.43L93.66-2.43L93.66-2.43Q93.60-2.55 93.51-2.88L93.51-2.88L93.51-2.88Q93.42-3.21 93.36-3.21L93.36-3.21L93.36-3.21Q93.24-3.21 93.19-3L93.19-3L93.19-3Q93.15-2.79 93.15-2.48L93.15-2.48L93.15-2.48Q93.15-2.16 93.19-1.81L93.19-1.81L93.19-1.81Q93.24-1.47 93.33-1.23L93.33-1.23L93.33-1.23Q93.51-0.63 93.76-0.39L93.76-0.39L93.76-0.39Q94.02-0.15 94.44 0L94.44 0L94.44 0Q94.62 0.09 94.71 0.09L94.71 0.09L94.71 0.09Q94.74 0.09 94.72 0.04L94.72 0.04L94.72 0.04Q94.71 0 94.68 0L94.68 0L94.68 0Q94.47-0.24 94.30-0.51L94.30-0.51L94.30-0.51Q94.14-0.78 94.02-1.14ZM96.36-16.65L96.36-16.65L96.36-16.65Q96.21-16.65 95.89-16.70L95.89-16.70L95.89-16.70Q95.58-16.74 95.58-16.98L95.58-16.98L95.58-16.98Q95.58-17.07 95.85-17.20L95.85-17.20L95.85-17.20Q96.12-17.34 96.45-17.59L96.45-17.59L96.45-17.59Q96.78-17.85 97.05-18.25L97.05-18.25L97.05-18.25Q97.32-18.66 97.32-19.29L97.32-19.29L97.32-19.29Q97.32-20.07 97.02-20.46L97.02-20.46L97.02-20.46Q96.96-20.55 96.87-20.65L96.87-20.65L96.87-20.65Q96.78-20.76 96.81-20.79L96.81-20.79L96.81-20.79Q96.87-20.79 96.94-20.75L96.94-20.75L96.94-20.75Q97.02-20.70 97.05-20.67L97.05-20.67L97.05-20.67Q97.65-20.34 97.96-19.81L97.96-19.81L97.96-19.81Q98.28-19.29 98.28-18.81L98.28-18.81L98.28-18.81Q98.28-17.85 97.83-17.25L97.83-17.25L97.83-17.25Q97.38-16.65 96.36-16.65ZM95.25-17.85L95.25-17.85L95.25-17.85Q94.89-17.70 94.89-18.03L94.89-18.03L94.89-18.03Q94.89-18.27 95.07-18.50L95.07-18.50L95.07-18.50Q95.25-18.72 95.41-18.99L95.41-18.99L95.41-18.99Q95.58-19.26 95.64-19.61L95.64-19.61L95.64-19.61Q95.70-19.95 95.46-20.46L95.46-20.46L95.46-20.46Q95.40-20.61 95.25-20.79L95.25-20.79L95.25-20.79Q95.10-20.97 95.16-21L95.16-21L95.16-21Q95.22-21.03 95.41-20.95L95.41-20.95L95.41-20.95Q95.61-20.88 95.67-20.85L95.67-20.85L95.67-20.85Q96.18-20.61 96.43-20.13L96.43-20.13L96.43-20.13Q96.69-19.65 96.69-19.29L96.69-19.29L96.69-19.29Q96.69-18.72 96.22-18.34L96.22-18.34L96.22-18.34Q95.76-17.97 95.25-17.85ZM94.38-19.47L94.38-19.47L94.38-19.47Q94.38-19.62 94.47-19.81L94.47-19.81L94.47-19.81Q94.56-20.01 94.77-20.01L94.77-20.01L94.77-20.01Q94.92-20.01 95.01-19.81L95.01-19.81L95.01-19.81Q95.10-19.62 95.10-19.47L95.10-19.47L95.10-19.47Q95.10-19.35 95.01-19.15L95.01-19.15L95.01-19.15Q94.92-18.96 94.77-18.96L94.77-18.96L94.77-18.96Q94.56-18.96 94.47-19.14L94.47-19.14L94.47-19.14Q94.38-19.32 94.38-19.47ZM108.12-11.79L108.12-11.79L108.12-11.79Q108.12-11.76 108.09-11.68L108.09-11.68L108.09-11.68Q108.06-11.61 108.03-11.55L108.03-11.55L108.03-11.55Q107.85-11.13 107.52-10.83L107.52-10.83L107.52-10.83Q107.19-10.53 106.83-10.32L106.83-10.32L106.83-10.32Q106.47-10.11 106.11-10.02L106.11-10.02L106.11-10.02Q105.75-9.93 105.48-9.96L105.48-9.96L105.48-9.96Q104.67-10.02 103.80-10.24L103.80-10.24L103.80-10.24Q102.93-10.47 102.15-10.77L102.15-10.77L102.15-10.77Q102.12-10.77 101.98-10.86L101.98-10.86L101.98-10.86Q101.85-10.95 101.85-11.01L101.85-11.01L101.85-11.01Q101.85-11.07 101.94-11.10L101.94-11.10L101.94-11.10Q102.03-11.13 102.09-11.16L102.09-11.16L102.09-11.16Q102.27-11.22 102.57-11.25L102.57-11.25L102.57-11.25Q102.87-11.28 103.18-11.28L103.18-11.28L103.18-11.28Q103.50-11.28 103.80-11.26L103.80-11.26L103.80-11.26Q104.10-11.25 104.31-11.22L104.31-11.22L104.31-11.22Q104.79-11.13 105.33-11.12L105.33-11.12L105.33-11.12Q105.87-11.10 106.38-11.16L106.38-11.16L106.38-11.16Q106.89-11.22 107.31-11.37L107.31-11.37L107.31-11.37Q107.73-11.52 107.97-11.79L107.97-11.79L107.97-11.79Q108.12-11.94 108.12-11.79ZM108.36-12.69L108.36-12.69L108.27-12.57L108.27-12.57Q107.73-11.82 106.99-11.64L106.99-11.64L106.99-11.64Q106.26-11.46 105.45-11.55L105.45-11.55L105.45-11.55Q104.64-11.64 103.78-11.85L103.78-11.85L103.78-11.85Q102.93-12.06 102.12-12.09L102.12-12.09L102.12-12.09Q101.07-12.15 99.99-11.63L99.99-11.63L99.99-11.63Q98.91-11.10 98.13-9.75L98.13-9.75L98.13-9.75Q98.07-9.60 98.01-9.63L98.01-9.63L98.01-9.63Q97.98-9.63 97.99-9.73L97.99-9.73L97.99-9.73Q98.01-9.84 98.04-9.90L98.04-9.90L98.04-9.90Q98.34-10.80 98.79-11.40L98.79-11.40L98.79-11.40Q99.24-12 99.76-12.36L99.76-12.36L99.76-12.36Q100.29-12.72 100.84-12.87L100.84-12.87L100.84-12.87Q101.40-13.02 101.94-13.02L101.94-13.02L101.94-13.02Q103.44-16.20 105.46-18.81L105.46-18.81L105.46-18.81Q107.49-21.42 109.86-23.22L109.86-23.22L109.86-23.22Q109.95-23.28 110.02-23.36L110.02-23.36L110.02-23.36Q110.10-23.43 110.16-23.40L110.16-23.40L110.16-23.40Q110.22-23.40 110.13-23.27L110.13-23.27L110.13-23.27Q110.04-23.13 110.01-23.10L110.01-23.10L110.01-23.10Q108.09-21.03 106.27-18.46L106.27-18.46L106.27-18.46Q104.46-15.90 103.02-12.96L103.02-12.96L103.02-12.96Q103.14-12.90 103.27-12.90L103.27-12.90L103.27-12.90Q103.41-12.90 103.53-12.87L103.53-12.87L103.53-12.87Q103.86-13.62 104.26-14.47L104.26-14.47L104.26-14.47Q104.67-15.33 105.18-16.20L105.18-16.20L105.18-16.20Q105.69-17.13 106.30-17.98L106.30-17.98L106.30-17.98Q106.92-18.84 107.53-19.56L107.53-19.56L107.53-19.56Q108.15-20.28 108.66-20.85L108.66-20.85L108.66-20.85Q109.17-21.42 109.47-21.75L109.47-21.75L109.47-21.75Q109.59-21.87 109.69-21.96L109.69-21.96L109.69-21.96Q109.80-22.05 109.86-22.02L109.86-22.02L109.86-22.02Q109.92-21.99 109.86-21.87L109.86-21.87L109.86-21.87Q109.80-21.75 109.74-21.66L109.74-21.66L109.74-21.66Q109.38-20.94 108.85-20.00L108.85-20.00L108.85-20.00Q108.33-19.05 107.74-18.04L107.74-18.04L107.74-18.04Q107.16-17.04 106.59-16.04L106.59-16.04L106.59-16.04Q106.02-15.03 105.57-14.22L105.57-14.22L105.57-14.22Q105.36-13.83 105.13-13.46L105.13-13.46L105.13-13.46Q104.91-13.08 104.73-12.66L104.73-12.66L104.73-12.66Q104.94-12.66 105.18-12.57L105.18-12.57L105.18-12.57Q105.84-13.92 106.57-15.22L106.57-15.22L106.57-15.22Q107.31-16.53 108.18-17.85L108.18-17.85L108.18-17.85Q108.30-18 108.31-18.04L108.31-18.04L108.31-18.04Q108.33-18.09 108.39-18.03L108.39-18.03L108.39-18.03Q108.42-18 108.36-17.76L108.36-17.76L108.36-17.76Q108.03-16.89 107.38-15.45L107.38-15.45L107.38-15.45Q106.74-14.01 106.08-12.45L106.08-12.45L106.08-12.45Q106.68-12.39 107.22-12.45L107.22-12.45L107.22-12.45Q107.76-12.51 108.27-12.75L108.27-12.75L108.27-12.75Q108.30-12.75 108.33-12.76L108.33-12.76L108.33-12.76Q108.36-12.78 108.36-12.69ZM100.38-10.92L100.38-10.92L100.38-10.92Q100.38-10.80 100.18-10.63L100.18-10.63L100.18-10.63Q99.99-10.47 99.93-10.44L99.93-10.44L99.09-9.87L99.09-9.87Q98.85-9.63 98.67-9.42L98.67-9.42L98.67-9.42Q98.49-9.21 98.28-8.91L98.28-8.91L98.28-8.91Q98.22-8.85 98.20-8.79L98.20-8.79L98.20-8.79Q98.19-8.73 98.13-8.73L98.13-8.73L98.13-8.73Q98.10-8.73 98.10-8.97L98.10-8.97L98.10-8.97Q98.10-9.09 98.13-9.21L98.13-9.21L98.13-9.21Q98.28-9.63 98.43-9.91L98.43-9.91L98.43-9.91Q98.58-10.20 98.97-10.53L98.97-10.53L98.97-10.53Q99.12-10.65 99.36-10.77L99.36-10.77L99.36-10.77Q99.60-10.89 99.82-10.96L99.82-10.96L99.82-10.96Q100.05-11.04 100.21-11.04L100.21-11.04L100.21-11.04Q100.38-11.04 100.38-10.92ZM101.40-8.97L101.40-8.97L101.40-8.97Q100.98-7.83 100.71-6.72L100.71-6.72L100.71-6.72Q100.44-5.61 100.20-4.47L100.20-4.47L100.20-4.47Q99.87-2.79 99.73-1.03L99.73-1.03L99.73-1.03Q99.60 0.72 99.67 2.42L99.67 2.42L99.67 2.42Q99.75 4.11 100.03 5.70L100.03 5.70L100.03 5.70Q100.32 7.29 100.83 8.64L100.83 8.64L100.83 8.64Q100.89 8.79 100.93 8.89L100.93 8.89L100.93 8.89Q100.98 9 100.92 9L100.92 9L100.92 9Q100.83 9 100.74 8.88L100.74 8.88L100.74 8.88Q99.90 7.50 99.42 5.87L99.42 5.87L99.42 5.87Q98.94 4.23 98.80 2.40L98.80 2.40L98.80 2.40Q98.67 0.57 98.83-1.38L98.83-1.38L98.83-1.38Q99.00-3.33 99.42-5.31L99.42-5.31L99.42-5.31Q99.81-7.29 100.41-9.18L100.41-9.18L100.41-9.18Q100.17-9.24 99.99-9.27L99.99-9.27L99.99-9.27Q99.81-9.30 99.63-9.36L99.63-9.36L99.63-9.36Q99.57-9.39 99.45-9.44L99.45-9.44L99.45-9.44Q99.33-9.48 99.33-9.54L99.33-9.54L99.33-9.54Q99.33-9.60 99.42-9.63L99.42-9.63L99.42-9.63Q99.51-9.66 99.57-9.69L99.57-9.69L99.57-9.69Q100.65-10.08 101.76-9.99L101.76-9.99L101.76-9.99Q102.87-9.90 104.01-9.69L104.01-9.69L104.01-9.69Q104.70-9.57 105.43-9.51L105.43-9.51L105.43-9.51Q106.17-9.45 106.95-9.75L106.95-9.75L106.95-9.75Q107.07-9.81 107.07-9.75L107.07-9.75L107.07-9.75Q107.07-9.72 106.95-9.54L106.95-9.54L106.95-9.54Q106.62-9.03 105.97-8.87L105.97-8.87L105.97-8.87Q105.33-8.70 104.64-8.67L104.64-8.67L104.64-8.67Q104.22-7.41 103.93-6.30L103.93-6.30L103.93-6.30Q103.65-5.19 103.50-4.41L103.50-4.41L101.70 3.96L101.70 3.96Q101.64 4.23 101.61 4.42L101.61 4.42L101.61 4.42Q101.58 4.62 101.52 4.56L101.52 4.56L101.52 4.56Q101.43 4.62 101.41 4.37L101.41 4.37L101.41 4.37Q101.40 4.11 101.40 3.87L101.40 3.87L101.40 3.87Q101.40 0.96 101.95-2.27L101.95-2.27L101.95-2.27Q102.51-5.49 103.62-8.70L103.62-8.70L103.62-8.70Q103.44-8.76 103.30-8.76L103.30-8.76L103.30-8.76Q103.17-8.76 103.02-8.79L103.02-8.79L103.02-8.79Q102.57-7.62 102.19-6.45L102.19-6.45L102.19-6.45Q101.82-5.28 101.46-4.14L101.46-4.14L101.46-4.14Q101.46-4.08 101.41-3.94L101.41-3.94L101.41-3.94Q101.37-3.81 101.31-3.66L101.31-3.66L101.31-3.66Q101.25-3.51 101.17-3.40L101.17-3.40L101.17-3.40Q101.10-3.30 101.07-3.30L101.07-3.30L101.07-3.30Q101.04-3.30 101.05-3.42L101.05-3.42L101.05-3.42Q101.07-3.54 101.08-3.71L101.08-3.71L101.08-3.71Q101.10-3.87 101.11-4.04L101.11-4.04L101.11-4.04Q101.13-4.20 101.13-4.26L101.13-4.26L101.13-4.26Q101.19-5.10 101.46-6.38L101.46-6.38L101.46-6.38Q101.73-7.65 102.06-8.88L102.06-8.88L102.06-8.88Q101.70-8.88 101.40-8.97ZM101.76 8.88L101.76 8.88L101.76 8.88Q101.70 8.91 101.55 8.76L101.55 8.76L101.55 8.76Q101.49 8.70 101.46 8.64L101.46 8.64L101.46 8.64Q101.28 8.34 101.14 8.08L101.14 8.08L101.14 8.08Q101.01 7.83 100.89 7.51L100.89 7.51L100.89 7.51Q100.77 7.20 100.66 6.75L100.66 6.75L100.66 6.75Q100.56 6.30 100.47 5.61L100.47 5.61L100.47 5.61Q100.38 5.10 100.35 4.30L100.35 4.30L100.35 4.30Q100.32 3.51 100.32 2.76L100.32 2.76L100.32 2.76Q100.32 2.01 100.38 1.47L100.38 1.47L100.38 1.47Q100.44 0.93 100.53 0.93L100.53 0.93L100.53 0.93Q100.59 0.93 100.65 1.16L100.65 1.16L100.65 1.16Q100.71 1.38 100.74 1.68L100.74 1.68L100.74 1.68Q100.77 1.98 100.78 2.27L100.78 2.27L100.78 2.27Q100.80 2.55 100.80 2.67L100.80 2.67L101.07 5.43L101.07 5.43Q101.16 6.24 101.34 6.99L101.34 6.99L101.34 6.99Q101.52 7.74 101.73 8.49L101.73 8.49L101.73 8.49Q101.76 8.61 101.77 8.74L101.77 8.74L101.77 8.74Q101.79 8.88 101.76 8.88Z" fill="url(#editing-gradient-gradient)"/></g></g><style>text {
  font-size: 64px;
  font-family: Arial Black;
  dominant-baseline: central;
  text-anchor: middle;
}</style></svg>